<?xml version="1.0" standalone="no"?>
<!DOCTYPE svg PUBLIC "-//W3C//DTD SVG 1.1//EN" "http://www.w3.org/Graphics/SVG/1.1/DTD/svg11.dtd" >
<svg xmlns="http://www.w3.org/2000/svg">
<metadata>Generated by IcoMoon</metadata>
<defs>
<font id="icomoon" horiz-adv-x="1024">
<font-face units-per-em="1024" ascent="960" descent="-64" />
<missing-glyph horiz-adv-x="1024" />
<glyph unicode="&#x20;" horiz-adv-x="512" d="" />
<glyph unicode="&#xe900;" d="M10.24 591.36c0 75.308 0 150.615 3.927 230.263 33.299-1.948 62.588-13.19 92.055-13.676 134.448-2.216 268.948-2.060 403.424-1.476 96.786 0.42 193.564 2.857 294.35 4.582 61.641 30.52 64.605 53.6 11.79 89.91-6.725 3.326-10.043 4.714-13.366 4.726-243.656 0.904-487.313 1.939-730.969 1.697-10.699-0.011-21.386-11.789-35.889-18.037-10.981-0.31-18.152-0.669-25.323-1.028 0 20.43 0 40.861 0 61.328 340.457 0.037 680.913 0.037 1024 0.037 0-252.72 0-505.524-3.71-764.755-48.511 16.381-93.312 39.189-140.266 64.729-45.457 27.345-88.762 51.957-134.57 79.44-39.381 12.58-37.658-16.403-37.963-36.442-1.476-96.803-1.163-193.64-0.503-290.458 0.073-10.737 6.394-21.431 12.115-39.339 35.577 18.759 66.911 35.28 101.474 52.57 28.231 14.958 52.788 30.013 78.336 43.14 41.353 21.249 83.358 41.231 125.087 61.749 0-64.666 0-129.332 0-194.279-340.161 0-680.322 0-1024 0 0 109.135 0 218.588 4.127 333.136 32.43-2.44 60.615-15.916 89.056-16.482 124.464-2.478 249.003-1.356 373.514-1.139 16.966 0.030 37.113-2.977 50.124 4.844 18.269 10.982 46.424 35.365 43.264 45.858-6.337 21.039-28.743 40.141-48.985 53.018-12.484 7.942-33.22 3.587-50.251 3.596-110.863 0.054-221.789 1.899-332.556-1.432-42.949-1.292-85.539-14.525-128.292-22.319 0 68.481 0 136.963 3.55 209.082 19.569-4.695 35.501-20.004 51.621-20.205 91.079-1.133 182.203 1.358 277.955 1.606 62.34-0.408 120.036 0.191 181.425-0.858 8.849-0.553 14.007 0.542 23.558 0.664 28.279 0.137 52.165 1.248 80.276 0.854 25-0.803 45.777-0.101 70.852-1.104 36.196-0.593 68.092 0.519 103.946 1.346 32.757 11.367 61.444 30.561 44.994 62.635-10.561 20.593-41.321 35.577-66.028 42.785-23.231 6.778-50.402 0.051-79.169 0.358-7.911 0.458-12.492-0.177-21.745 0.389-195.456 1.567-386.246 2.658-577.017 1.285-21.258-0.153-42.415-14.315-66.882-22.198-11.287-3.612-19.31-7.007-27.333-10.401z" />
<glyph unicode="&#xe901;" d="M10.24 320.733c42.754 12.181 85.343 25.415 128.292 26.706 110.767 3.331 221.694 1.485 332.556 1.432 17.032-0.008 37.767 4.346 50.251-3.596 20.242-12.877 42.649-31.979 48.985-53.018 3.16-10.493-24.995-34.875-43.264-45.858-13.010-7.821-33.158-4.814-50.124-4.844-124.511-0.217-249.050-1.339-373.514 1.139-28.442 0.566-56.626 14.043-89.056 21.281-4.127 17.259-4.127 34.814-4.127 56.757zM201.954 273.916c49.5 0 98.999 0 148.499 0 0.548 6.889 1.097 13.778 1.645 20.667-53.465 9.866-106.665 22.367-160.577 27.807-14.072 1.42-30.361-19.145-45.633-29.612 15.537-6.285 31.075-12.57 56.066-18.862z" />
<glyph unicode="&#xe902;" d="M892.417 246.928c44.801-22.808 89.602-45.617 138.113-66.797 3.71-15.926 3.71-33.481 3.71-55.424-41.729-24.905-83.734-44.887-125.087-66.136-25.548-13.127-50.105-28.183-82.471-42.063-33.763 24.427-76.328 44.936-82.708 73.52-9.183 41.148 7.948 88.168 18.117 132.888 46.287 8.141 88.307 16.076 130.326 24.012zM898.724 141.937c-11.72 22.93-17.84 54.45-36.555 66.649-24.214 15.784-64.585-21.555-72.077-61.34-7.183-38.143-0.083-68.142 45.422-74.751 40.088-5.822 62.151 14.862 63.209 69.442z" />
<glyph unicode="&#xe903;" d="M799.991 810.865c-96.781-1.537-193.559-3.974-290.345-4.394-134.476-0.584-268.976-0.74-403.424 1.476-29.467 0.486-58.756 11.728-92.055 18.475-3.927 0.459-3.927 5.579 0.627 8.303 28.878 2.588 53.201 2.452 82.305 2.218 215.791-0.122 426.806 0.608 637.798-1.303 21.771-0.197 43.399-16.138 65.093-24.774z" />
<glyph unicode="&#xe904;" d="M338.723 516.611c-91.109-1.256-182.233-3.747-273.312-2.614-16.12 0.201-32.052 15.51-51.621 25.002-3.55 1.161-3.55 6.281-0.041 8.487 14.794-0.871 26.078-3.948 42.086-7.494 86.986-4.070 169.27-7.283 251.486-11.744 10.646-0.578 20.943-7.6 31.401-11.637z" />
<glyph unicode="&#xe905;" d="M92.318 837.040c-24.323 0.137-48.646 0.273-77.523 0.245-4.555 14.057-4.555 28.28-4.555 46.769 7.171 4.626 14.342 4.984 28.813 3.556 22.59-4.358 37.881-6.928 53.154-13.604 0.025-15.059 0.068-26.012 0.112-36.965z" />
<glyph unicode="&#xe906;" d="M51.112 540.462c-11.285 3.077-22.569 6.154-37.363 9.585-3.509 11.277-3.509 22.199-3.509 37.218 8.023 7.49 16.046 10.885 29.476 12.322 17.519-0.914 29.631 0.128 41.222-2.234-10.289-21.234-20.057-39.062-29.825-56.89z" />
<glyph unicode="&#xe907;" d="M55.835 539.992c5.045 18.298 14.813 36.126 29.641 57.599 183.382 0.425 361.699-3.026 540.027-5.743 24.311-0.37 53.788-7.445 60.641 29.626 4.581 0.634 9.162 1.268 17.215-2.859 11.893-21.425 20.314-38.088 32.729-62.656-28.756-2.195-52.24-0.332-73.125-6.826-14.686-4.566-25.835-20.504-38.564-31.365-23.886-1.111-47.772-2.222-76.844-0.246-12.276 1.682-19.366 0.277-26.457-1.128-57.697-0.599-115.393-1.199-177.733-0.791-15.101 5.044-25.398 12.067-36.044 12.644-82.216 4.461-164.5 7.674-251.486 11.744z" />
<glyph unicode="&#xe908;" d="M97.1 836.942c-4.825 11.051-4.869 22.004-0.102 37.134 234.025 4.073 463.242 3.714 692.453 4.733 9.942 0.044 19.827 12.76 29.739 19.573 49.41-33.73 46.446-56.809-15.194-87.329-25.699 8.449-47.327 24.39-69.098 24.587-210.992 1.911-422.007 1.182-637.798 1.303z" />
<glyph unicode="&#xe909;" d="M815.786 900.962c-6.507-9.393-16.393-22.109-26.335-22.153-229.211-1.019-458.428-0.659-692.435-0.627-20.082 2.499-35.373 5.069-54.154 9.379 7.203 8.036 17.89 19.814 28.589 19.825 243.656 0.242 487.312-0.794 730.969-1.697 3.323-0.012 6.641-1.4 13.366-4.726z" />
<glyph unicode="&#xe90a;" d="M681.473 622.674c-2.18-38.271-31.658-31.196-55.968-30.826-178.328 2.717-356.646 6.168-539.506 9.148-16.652-1.282-28.764-2.324-43.018-1.192 19.061 9.84 40.218 24.002 61.476 24.155 190.771 1.372 381.561 0.282 577.017-1.285z" />
<glyph unicode="&#xe90b;" d="M757.823 222.711c-5.9-44.514-23.031-91.535-13.848-132.683 6.379-28.584 48.944-49.093 79.478-74.288-27.199-17.599-58.533-34.121-94.11-52.88-5.722 17.908-12.042 28.602-12.115 39.339-0.66 96.818-0.974 193.655 0.503 290.458 0.306 20.038-1.418 49.022 37.875 31.721 2.349-38.95 2.283-70.309 2.217-101.668z" />
<glyph unicode="&#xe90c;" d="M628.624 516.264c8.505 12.365 19.654 28.303 34.34 32.869 20.885 6.494 44.369 4.631 73.125 6.826-12.415 24.568-20.836 41.232-29.399 61.565 25.295 4.454 52.466 11.181 75.697 4.403 24.708-7.208 55.467-22.193 66.028-42.785 16.45-32.074-12.237-51.268-47.914-59.705-39.693 1.286-72.509-0.644-105.325-2.573-20.776-0.701-41.553-1.403-66.553-0.6z" />
<glyph unicode="&#xe90d;" d="M762.091 222.916c-4.202 31.154-4.136 62.514-3.982 98.593 43.393-19.892 86.697-44.505 132.154-71.85-39.866-10.667-81.885-18.603-128.173-26.744z" />
<glyph unicode="&#xe90e;" d="M699.476 515.16c28.516 3.633 61.332 5.562 97.068 4.561-28.976-4.042-60.872-5.154-97.068-4.561z" />
<glyph unicode="&#xe90f;" d="M524.79 514.745c3.399 3.054 10.489 4.459 18.372 3.751-4.365-3.208-9.523-4.304-18.372-3.751z" />
<glyph unicode="&#xe910;" d="M197.227 273.92c-20.264 6.289-35.802 12.573-51.339 18.858 15.271 10.468 31.561 31.032 45.633 29.612 53.912-5.44 107.112-17.941 160.577-27.807-0.548-6.889-1.097-13.778-1.645-20.667-49.5 0-98.999 0-153.226 0.004z" />
<glyph unicode="&#xe911;" d="M899.466 137.78c-1.8-50.422-23.864-71.106-63.951-65.284-45.505 6.609-52.605 36.607-45.422 74.751 7.492 39.785 47.863 77.124 72.077 61.34 18.715-12.199 24.835-43.719 37.296-70.807z" />
<glyph unicode="&#xe912;" d="M1034.24 581.12c0-221.867 0-438.613 0-655.36-341.333 0-682.666 0-1024 0 0 341.333 0 682.666 0 1023.999 341.333 0 682.666 0 1023.999 0 0.001-121.173 0.001-242.346 0.001-368.64zM178.668 122.404c0.209-3.63 0.419-7.261-5.802-18.025 0.485-22.007 0.969-44.013-0.038-71.104 0.615-1.656 1.23-3.311-0.243-14.036 9.656-7.731 18.915-21.498 29.035-22.163 47.532-3.121 95.305-3.499 142.985-3.295 171.888 0.735 343.774 2.099 521.747 3.332 0.658 3.607 1.316 7.214 3.077 19.534-0.642 17.485-1.285 34.97 0.154 59.351-0.864 4.649-1.728 9.297-0.646 23.32-0.428 92.245-0.856 184.49 1.064 285.749 2.326 30.114 4.652 60.228 9.302 89.092 0 0 2.075 1.637 10.317-0.47 14.061 1.358 28.123 2.716 50.531 1.939 7.321 11.265 14.643 22.531 24.163 43.157-3.607 61.629-7.215 123.259-4.496 189.135-23.008 5.067-46.015 10.134-77.168 16.947-88.408 0.032-176.815 0.167-265.222 0.074-166.617-0.175-333.235-0.939-499.849-0.357-34.345 0.12-48.83-11.019-46.452-47.69 3.075-47.411 3.52-95.384-0.041-142.728-3.78-50.254 14.446-70.21 69.578-62.725 10.189-1.252 20.378-2.504 31.2-12.876 1.016-27.462 2.032-54.923 1.019-87.315 0.502-1.705 1.005-3.409-0.685-12.658 0.7-7.759 1.399-15.519 0.319-31.91 0.55-17.577 1.1-35.154-0.48-61.755 0.719-27.733 1.437-55.466 0.467-91.97 3.066-16.264 6.131-32.528 6.164-50.553zM802.369 819.607c-4.625-0.905-9.25-1.81-20.6-0.403-4.579-0.928-9.158-1.857-23.067-0.33-170.090 0.576-340.187 0.502-510.266 2.171-44.162 0.433-52.838-17.578-39.419-55.322 113.071 0 223.415 0 343.186-1.881 105.752 0 211.504 0 334.266 0-18.144 26.64-27.416 40.254-41.864 56.062-1.624-0.934-3.248-1.868-12.465-0.953-7.725-0.774-15.451-1.548-29.772 0.657zM639.295 919.492c-98.923-0.546-197.888-2.992-296.751-0.805-46.531 1.029-50.379-20.196-41.219-61.038 138.581 0 276.297-0.666 413.972 1.432 9.636 0.147 23.745 19.703 26.506 32.271 1.488 6.772-15.517 23.567-26.271 25.81-21.321 4.447-44.091 1.942-76.237 2.33z" />
<glyph unicode="&#xe913;" d="M679.724 951.172c117.010 0 234.020 0 353.103 0 0-100.221 0-200.456-2.646-304.156-3.844-6.799-5.043-10.134-9.14-14.101-6.769-0.098-10.638 0.437-14.572 3.166-2.877 5.427-5.69 8.66-8.575 15.249-5.704 16.181-10.003 29.812-17.19 41.697-38.108 63.013-77.66 124.894-151.058 158.027-33.368 21.032-66.901 37.245-96.56 58.789-18.024 13.092-56.228 1.688-53.362 41.33z" />
<glyph unicode="&#xe914;" d="M308.966-72.828c-99.425 0-198.851 0-300.138 0 0 106.108 0 212.227 3.171 323.179 10.41-7.099 17.316-19.249 24.957-30.917 15.648-23.895 31.691-47.532 47.748-73.981 10.203-15.719 20.23-28.731 30.12-44.678 12.523-14.555 25.183-26.175 39.419-40.318 56.078-38.523 101.319-90.603 170.801-99.731-0.266 0.397-0.921-0.299-0.336-3.196-4.857-12.051-10.299-21.204-15.741-30.358z" />
<glyph unicode="&#xe915;" d="M1032.828 368.552c0-47.271 0-94.542-2.685-144.534-26.894 27.702-33.187-2.669-38.34-15.693-14.63-36.979-27.76-74.038-67.934-95.907-9.263-9.863-15.136-19.557-21.241-28.765-0.232 0.485 0.759 0.067-2.626 0.621-43.213-20.325-86.426-37.745-97.325-92.236-8.762-4.914-15.883-7.428-23.77-6.916-19.28 25.274-37.796 47.522-54.529 71.962 53.872 52.552 106.984 101.922 157.358 153.943 13.171 13.601 18.333 35.227 26.263 53.561 8.486 19.618 15.896 39.701 27.027 60.124 8.305 9.104 13.358 17.665 20.133 27.626 0.597 6.308-0.527 11.217-1.668 19.825 0.737 20.075 1.49 36.451 2.713 63.016 31.18-27.113 53.902-46.87 76.623-66.627z" />
<glyph unicode="&#xe916;" d="M927.259 112.588c36.784 21.699 49.914 58.758 64.544 95.737 5.153 13.024 11.446 43.395 38.34 11.565 2.685-97.872 2.685-194.336 2.685-292.717-97.279 0-194.572 0-297.668 1.874-10.423 3.629-15.042 5.384-19.562 9.996 8.61 9.996 17.122 17.135 28.445 24.376 13.751 6.294 24.69 12.485 35.629 18.676 7.122 2.515 14.244 5.029 26.156 10.456 35.714 32.331 66.637 61.75 97.559 91.169 0 0-0.992 0.418 2.104 0.678 9.32 9.57 15.543 18.88 21.767 28.189z" />
<glyph unicode="&#xe917;" d="M8.828 624.552c0 108.217 0 216.434 0 326.621 103.165 0 206.342 0 315.42-2.802-0.328-8.898-6.557-14.995-13.724-21.064-0.938 0.027-1.506-1.762-4.672-2.148-49.62-32.006-96.075-63.626-145.139-96.368-64.452-52.561-103.618-119.286-134.2-194.811-7.293-4.208-12.489-6.818-17.685-9.428z" />
<glyph unicode="&#xe918;" d="M163.323 829.912c46.454 31.62 92.909 63.241 142.362 92.018-1.029-18.010-5.058-33.176-9.087-48.343 9.999-0.587 19.997-1.173 32.693-3.242 17.088-3.958 39.827-13.434 44.549-7.803 37.828 45.116 89.613 39.641 139.299 45.26 26.475 2.994 55.592 7.87 60.653 43.371 15.134 0 30.267 0 49.189-2.937 3.786-6.853 3.784-10.769 2.911-17.769-20.881-15.8-40.891-28.516-64.524-41.79-31.053-3.080-58.873-3.645-85.739-8.997-12.348-2.46-22.827-14.307-37.391-23.238-51.762-19.537-107.709-28.029-147.101-58.162-61.869-47.326-112.576-109.243-169.719-166.355-3.69-3.623-4.998-6.211-5.673-8.722-0.039 0.418 0.792 0.306-2.723 0.575-10.562 0.422-17.609 0.574-27.461 1.060-9.8 3.079-16.793 5.824-22.374 11.054 8.101 12.688 19.33 22.317 20.709 33.194 6.695 52.804 31.674 94.071 70.83 128.995 6.867 6.125 5.93 20.999 8.598 31.833z" />
<glyph unicode="&#xe919;" d="M778.907-14.878c-10.174-9.218-21.114-15.41-36.222-19.319-12.006 6.296-19.842 10.31-29.81 16.422-12.471 9.53-22.81 16.961-34.544 26.172-6.389 0.606-11.381-0.566-19.69-1.931-19.933-12.783-36.548-25.373-53.164-37.962-2.48 3.279-4.96 6.557-7.44 9.836 1.057 8.599 2.113 17.197 3.953 32.168-21.16-6.573-36.4-11.306-45.852-14.242 0-28.021 0-48.557 0-69.093-9.416 0-18.832 0-31.803 3.243-7.932 12.511-12.31 21.78-16.688 31.049-3.542-2.073-7.085-4.145-10.627-6.218 4.993-9.358 9.987-18.715 14.98-28.073-9.416 0-18.832 0-31.463 2.905 4.505 33.892-13.672 29.826-35.143 30.213-40.445 0.73-80.961-13.632-121.272 0.137 0 0 0.655 0.696 1.135 3.656-7.617 13.111-16.002 23.050-23.696 33.498-4.050 5.498-6.894 11.884-7.144 17.428 18.878-6.846 34.617-13.25 49.147-19.161 16.104 11.301 31.825 22.334 50.215 32.649 5.906-2.472 9.143-4.227 13.52-8.987 23.856-1.588 46.571-0.172 73.336 2.154 86.354-10.41 163.217 18.325 241.96 33.227 18.516-22.247 37.032-44.495 56.312-69.769zM428.557-6.701c0 0-0.562-0.267 0 0z" />
<glyph unicode="&#xe91a;" d="M1032.828 372.687c-22.721 15.622-45.442 35.379-76.623 62.492-1.222-26.565-1.976-42.941-2.744-65.936-0.017-10.514-0.020-14.41-0.022-18.305-5.053-8.561-10.107-17.123-18.077-22.048-0.697 22.341 2.017 41.004 3.66 59.76 7.046 80.426-4.601 158.538-26.070 234.948 16.038-2.635 28.295-5.326 41.175-10.922 11.639-9.733 22.655-16.563 33.671-23.392 1.798 3.074 3.595 6.148 5.393 9.222-7.38 5.726-14.76 11.451-21.818 20.979 9.080 12.032 17.837 20.261 26.595 28.491 2.813-3.233 5.625-6.466 8.443-14.832 3.166-10.247 6.326-15.36 9.486-20.473 2.681 6.959 5.363 13.919 8.044 20.878 1.198 3.335 2.397 6.669 6.241 9.332 2.646-21.599 2.646-42.525-0.139-67.981-0.928-12.951 0.928-21.373 2.785-29.795 0-56.094 0-112.188 0-172.417zM964.433 469.817c-1.702-2.441-3.404-4.881-5.106-7.322 2.526 1.565 5.053 3.131 5.106 7.322zM968.747 514.377c1.423 0.077 2.846 0.155 4.27 0.232-0.951 0.44-1.902 0.881-4.27-0.232z" />
<glyph unicode="&#xe91b;" d="M564.991 889.234c20.010 12.716 40.021 25.432 63.954 41.323 10.714 8.989 17.505 14.802 24.296 20.615 6.621 0 13.241 0 23.172 0 0.445-39.641 38.648-28.237 56.672-41.33 29.659-21.545 63.192-37.757 95.197-61.572-21.981-5.571-44.476-8.531-66.053-5.32-27.985 4.166-55.238 13.247-82.761 22.961-5.835 6.691-11.716 10.632-21.576 14.58-33.621 2.918-63.262 5.83-92.903 8.742z" />
<glyph unicode="&#xe91c;" d="M84.527 148.16c-15.88 23.743-31.923 47.38-47.571 71.275-7.641 11.668-14.547 23.817-24.957 35.054-3.171 26.058-3.171 52.811 0.686 83.568 21.856 4.013 39.854 4.022 59.213 1.225 12.79-9.596 24.221-16.388 38.256-24.697 8.338-15.46 14.071-29.403 16.664-43.353-15.669 1.617-28.198 3.241-36.135 4.27-3.306-20.159-7.416-37.858-8.641-55.754-0.621-9.074 3.962-18.504 6.122-32.171-1.259-16.072-2.449-27.744-3.638-39.417z" />
<glyph unicode="&#xe91d;" d="M70.538 342.086c-17.999-0.009-35.997-0.017-57.853-0.021-3.857 79.637-3.857 159.27-0.634 242.877 11.411-10.099 20.574-23.709 27.535-38.365 8.396-17.679 14.923-36.245 22.246-57.372-0.023-6.871-0.032-10.797-1.744-16.362 2.35-6.448 6.404-11.257 10.468-19.001 0.017-6.847 0.023-10.759-1.935-16.345-3.521-6.495-5.079-11.317-6.63-19.766 2.853-27.632 5.7-51.639 8.548-75.645z" />
<glyph unicode="&#xe91e;" d="M569.784 951.172c-1.053-35.501-30.169-40.376-56.645-43.371-49.687-5.619-101.472-0.144-139.299-45.26-4.722-5.631-27.461 3.844-44.541 11.659-7.739 21.252-12.788 37.165-17.838 53.078 6.229 6.096 12.458 12.193 16.923 21.091 10.496 2.802 22.757 2.802 38.785-0.431 11.293-14.398 22.357-36.211 25.792-35.069 31.604 10.503 61.888 24.981 92.555 38.302 26.753 0 53.506 0 84.267 0z" />
<glyph unicode="&#xe91f;" d="M560.182-72.828c-4.044 20.536-4.044 41.072-4.044 69.093 9.452 2.936 24.691 7.67 45.852 14.242-1.84-14.971-2.896-23.57-3.953-32.168 2.48-3.279 4.96-6.557 7.44-9.836 16.616 12.589 33.231 25.179 56.127 37.946 10.228 0.175 14.175 0.172 18.123 0.169 10.339-7.432 20.677-14.864 30.914-25.413-4.465-5.367-8.828-7.616-16.196-10.308-15.737-14.87-28.47-29.297-41.203-43.724-29.672 0-59.344 0-93.060 0z" />
<glyph unicode="&#xe920;" d="M61.845 492.149c-7.336 18.182-13.863 36.749-22.26 54.427-6.961 14.656-16.124 28.266-27.535 42.502-3.223 9.579-3.223 18.995-3.223 31.942 5.196 6.141 10.392 8.751 21.814 12.44 14.528 0.701 22.83 0.323 31.132-0.054 6.993-2.745 13.986-5.491 23.618-12.055-6.090-45.613-14.818-87.408-23.547-129.203z" />
<glyph unicode="&#xe921;" d="M324.707-42.47c39.726-10.872 80.243 3.49 120.688 2.76 21.471-0.388 39.647 3.679 31.612-30.213-53.469-2.905-106.621-2.905-163.907-2.905 1.308 9.153 6.75 18.307 11.608 30.358z" />
<glyph unicode="&#xe922;" d="M481.428 951.172c-26.579-13.321-56.862-27.799-88.467-38.302-3.435-1.142-14.499 20.671-22.114 35.069 35.438 3.233 70.965 3.233 110.581 3.233z" />
<glyph unicode="&#xe923;" d="M657.214-72.828c8.76 14.427 21.493 28.854 37.222 40.43 9.019-12.373 15.041-21.895 21.064-31.417 4.619-1.755 9.238-3.51 15.524-7.139-22.167-1.874-46.002-1.874-73.809-1.874z" />
<glyph unicode="&#xe924;" d="M514.207-72.828c-7.2 9.358-12.194 18.715-17.187 28.073 3.542 2.073 7.085 4.145 10.627 6.218 4.378-9.269 8.755-18.538 13.157-31.049 0.024-3.243-4.39-3.243-6.597-3.243z" />
<glyph unicode="&#xe925;" d="M649.931 951.172c-3.481-5.813-10.272-11.626-20.115-17.531-3.050 3.825-3.048 7.74-3.052 14.593 6.615 2.937 13.236 2.937 23.167 2.937z" />
<glyph unicode="&#xe926;" d="M679.424 863.162c27.568-6.965 54.821-16.046 82.806-20.212 21.576-3.212 44.072-0.251 67.522 2.748 73.292-27.779 112.845-89.659 150.952-152.673 7.187-11.885 11.487-25.516 17.19-41.697-8.686-11.585-17.443-19.815-29.449-31.825-7.146-3.829-11.045-3.877-14.943-3.926-12.257 2.692-24.514 5.384-42.031 10.226-14.759 18.508-20.673 39.227-34.366 50.485-67.186 55.235-106.455 141.483-209.487 159.064-42.228 7.206-85.394 19.319-129.556 21.285-32.148 1.431-64.387 0.834-96.585 1.141 11.326 7.59 21.805 19.438 34.153 21.898 26.866 5.352 54.686 5.917 85.739 8.997 33.264-2.354 62.905-5.265 97.113-10.866 10.026-6.675 15.484-10.661 20.943-14.648zM945.065 688.15c1.303-0.48 2.7-1.49 3.882-1.283 1.065 0.187 2.855 1.976 2.681 2.6-1.665 5.965-3.679 11.833-5.593 17.728-1.192-5.134-2.384-10.267-0.97-19.046zM931.231 672.659c0 0-0.3 0.611 0 0z" />
<glyph unicode="&#xe927;" d="M1021.041 632.915c0.218-6.327-2.464-13.286-5.145-20.246-3.16 5.113-6.321 10.226-9.422 18.279 3.929 2.404 7.798 1.87 14.567 1.967z" />
<glyph unicode="&#xe928;" d="M291.278 15.451c3.389-5.985 6.233-12.371 10.283-17.87 7.695-10.447 16.079-20.387 23.962-33.895-69.962 6.168-115.203 58.248-169.701 98.103 0.004 3.856 3.074 6.624 5.825 6.908 9.852-1.929 17.45-3.178 23.958-6.54 17.829-9.211 35.198-19.31 54.939-29.058 2.19 0 6.57 0.001 7.248-2.916 9.032-6.839 17.387-10.763 28.699-14.699 6.901-0.020 10.844-0.028 14.788-0.035z" />
<glyph unicode="&#xe929;" d="M84.703 145.454c1.013 14.379 2.202 26.051 3.484 42.136 0.092 4.412 0.136 4.443 2.389 3.443 6.618-3.283 10.984-5.567 17.525-9.985 17.912-24.668 45.841-43.625 21.28-77.147-6.73-0.076-10.575-0.134-14.421-0.191-10.026 13.012-20.053 26.025-30.256 41.744z" />
<glyph unicode="&#xe92a;" d="M114.823 100.775c3.982 2.992 7.827 3.050 16.648 0.952 12.458-12.542 19.942-22.928 27.425-33.314 0 0-3.070-2.768-4.65-4.1-14.239 10.287-26.899 21.907-39.422 36.462z" />
<glyph unicode="&#xe92b;" d="M438.238 856.44c35.436 1.033 67.675 1.63 99.823 0.199 44.162-1.966 87.328-14.080 129.556-21.285 103.032-17.581 142.301-103.829 209.487-159.064 13.693-11.257 19.607-31.977 30.586-50.542 26.729-78.561 38.375-156.673 31.33-237.099-1.643-18.756-4.356-37.419-6.912-60.302-8.214-24.059-15.624-44.141-24.11-63.759-7.93-18.334-13.092-39.96-26.263-53.561-50.374-52.021-103.485-101.391-157.358-153.943-80.526-17.094-157.389-45.83-247.591-34.63-28.808-0.060-49.718 0.001-70.629 0.061-3.237 1.755-6.474 3.51-13.636 9.036-13.473 9.494-24.828 21.842-32.263 19.814-35.891-9.789-56.023 10.909-78.486 32.382-33.304 31.836-68.719 61.464-103.406 91.775-0.171-0.257 0.339 0.074-0.467 2.524-3.621 4.273-6.436 6.094-9.422 9.831-1.468 4.626-3.597 5.732-7.543 8.020-9.877 15.35-18.77 27.916-27.36 43.99-1.003 12.789-2.31 22.070-3.617 31.351-5.733 13.942-11.466 27.885-20.468 46.973-6.16 75.103-9.967 145.046-11.117 215.032-0.213 12.945 12.612 25.614 15.281 39.222 3.249 16.565 2.118 33.989 2.882 51.041 0 0-0.831 0.112 1.58 0.539 3.277 3.368 4.144 6.31 5.011 9.251 55.434 55.738 106.141 117.655 168.010 164.982 39.393 30.133 95.339 38.625 147.101 58.162zM461.444 303.162c-19.235-38.341-16.013-92.383 10.398-115.99 16.672 0.536 33.343 1.072 56.728 1.362 55.405 36.662 60.302 62.4 16.924 111.836-25.766 1.548-51.533 3.095-84.049 2.792zM599.634 457.473c0 0 0.084 1.397 5.179 2.065 39.133 15.086 50.279 46.873 57.252 87.485-0.64 26.751 6.302 56.712-3.399 79.627-25.067 59.21-76.814 74.789-143.999 68.755-18.673-0.843-37.346-1.686-63.448-1.085-47.783 12.213-59.543-20.3-68.505-55.621-5.278-20.803-9.512-41.87-14.215-62.818 24.15 0.111 48.396-0.95 72.394 1.021 7.538 0.619 13.741 11.241 21.699 14.091 31.468 11.27 63.503 26.434 92.774-8.585-0.087-9.386-0.175-18.773-4.871-31.5-16.411-17.742-32.822-35.484-55.109-55.971-51.315-40.532-40.33-94.144-33.667-146.956 82.173-14.005 92.561-8.015 86.553 51.516-0.555 1.47-1.11 2.939-0.079 10.758 8.437 10.974 16.874 21.948 30.515 31.525 6.514 5.297 13.028 10.594 20.927 15.695z" />
<glyph unicode="&#xe92c;" d="M900.003 84.274c-27.538-29.972-58.46-59.391-92.534-89.324 6.109 51.578 49.322 68.999 92.534 89.324z" />
<glyph unicode="&#xe92d;" d="M923.869 112.417c-2.834-9.14-9.058-18.449-18.145-28.505 3.009 8.948 8.883 18.641 18.145 28.505z" />
<glyph unicode="&#xe92e;" d="M955.16 352.337c-1.719 2.496-1.717 6.391-1.683 13.207 1.156-1.989 2.28-6.898 1.683-13.207z" />
<glyph unicode="&#xe92f;" d="M715.598-60.957c-6.121 6.665-12.144 16.187-18.158 29.003 4.372 5.543 8.735 7.792 15.333 11.061 10.071-2.995 17.907-7.009 27.101-13.407-7.154-9.523-15.665-16.661-24.276-26.657z" />
<glyph unicode="&#xe930;" d="M63.186 635.891c-9.714-2.106-18.017-1.729-30.447-0.832 24.356 74.445 63.522 141.171 127.974 193.732-0.057-9.712 0.879-24.586-5.988-30.711-39.156-34.924-64.135-76.19-70.83-128.995-1.379-10.877-12.608-20.506-20.709-33.194z" />
<glyph unicode="&#xe931;" d="M310.523 927.306c5.988-15.94 11.037-31.853 16.079-51.623-10.007-3.27-20.005-2.683-30.004-2.097 4.029 15.167 8.058 30.334 12.253 48.729 0.166 3.229 0.734 5.018 1.672 4.991z" />
<glyph unicode="&#xe932;" d="M113.021 623.776c2.752-17.322 3.883-34.746 0.634-51.311-2.669-13.608-15.494-26.277-15.281-39.222 1.15-69.986 4.957-139.929 8.511-213.514-10.767 3.164-22.197 9.955-34.987 19.552-4.208 26.811-7.055 50.817-7.51 78.877 3.66 9.707 4.928 15.359 6.196 21.011-0.006 3.912-0.011 7.825-0.306 17.243-3.022 9.693-5.755 13.881-8.488 18.069 0.009 3.926 0.019 7.852 0.041 14.723 8.742 44.74 17.47 86.534 26.366 131.814 7.215 3.332 14.261 3.18 24.823 2.758z" />
<glyph unicode="&#xe933;" d="M121.418 631.923c0.843-1.568-0.024-4.509-3.263-8.295-1.735 2.084-0.427 4.672 3.263 8.295z" />
<glyph unicode="&#xe934;" d="M178.539 175.779c34.516-30.568 69.931-60.195 103.235-92.032 22.463-21.474 42.595-42.171 78.486-32.382 7.435 2.028 18.79-10.321 29.594-19.097-14.465-14.086-30.187-25.119-46.291-36.42-14.529 5.912-30.269 12.316-49.147 19.161-7.082 0.449-11.025 0.456-18.557 3.406-11.974 6.856-20.36 10.771-28.745 14.686 0 0-4.38-0.001-6.564 3.284-16.821 29.296 13.61 74.805-38.064 87.742-6.041 6.822-11.562 10.918-18.115 17.253-3.308 6.612-5.584 10.984-7.905 17.507-0.045 2.151-0.229 6.451 0.305 9.070 0.946 4.353 1.357 6.087 1.768 7.821z" />
<glyph unicode="&#xe935;" d="M407.299 19.51c19.77 2.944 40.68 2.883 65.439 2.033-18.867-2.205-41.583-3.621-65.439-2.033z" />
<glyph unicode="&#xe936;" d="M678.331 8.397c-2.552-1.776-6.499-1.773-13.41-1.754 2.029 1.188 7.022 2.36 13.41 1.754z" />
<glyph unicode="&#xe937;" d="M428.276-6.834c-0.281-0.133 0.281 0.133 0 0z" />
<glyph unicode="&#xe938;" d="M954.125 612.675c3.276 2.952 7.174 3.001 13.999 3.028 10.306-5.747 17.686-11.473 25.066-17.198-1.798-3.074-3.595-6.148-5.393-9.222-11.016 6.829-22.032 13.659-33.671 23.392z" />
<glyph unicode="&#xe939;" d="M965.669 468.504c-1.29-2.878-3.816-4.444-6.343-6.009 1.702 2.441 3.404 4.881 6.343 6.009z" />
<glyph unicode="&#xe93a;" d="M969.456 515.153c1.659 0.336 2.61-0.104 3.561-0.545-1.423-0.077-2.846-0.155-3.561 0.545z" />
<glyph unicode="&#xe93b;" d="M679.47 865.912c-5.504 1.237-10.963 5.224-17.009 11.892 5.293-1.26 11.174-5.201 17.009-11.892z" />
<glyph unicode="&#xe93c;" d="M126.819 271.232c4.446-9.274 5.753-18.555 4.346-30.449-7.343-0.375-11.972 1.865-18.301 2.698-0.528-6.268 0.642-11.13 3.004-18.553 9.265-12.673 17.34-22.785 23.538-34.78-12.408-0.639-22.939 0.604-34.514 3.869-6.219 0.687-11.393-0.648-16.568-1.983 0 0-0.044-0.031-0.066-0.044-2.252 9.255-6.835 18.685-6.214 27.759 1.225 17.896 5.334 35.595 8.641 55.754 7.937-1.029 20.466-2.653 36.135-4.27z" />
<glyph unicode="&#xe93d;" d="M60.088 472.843c4.436-2.549 7.168-6.736 10.179-13.495-3.775 2.238-7.829 7.047-10.179 13.495z" />
<glyph unicode="&#xe93e;" d="M68.621 437.497c0.696-3.979-0.572-9.632-4.238-15.712-0.841 4.394 0.716 9.216 4.238 15.712z" />
<glyph unicode="&#xe93f;" d="M943.762 689.973c-0.111 6.956 1.081 12.090 2.273 17.223 1.914-5.896 3.928-11.763 5.593-17.728 0.174-0.624-1.616-2.413-2.681-2.6-1.183-0.208-2.579 0.803-5.185 3.105z" />
<glyph unicode="&#xe940;" d="M931.081 672.964c-0.15 0.305 0.15-0.305 0 0z" />
<glyph unicode="&#xe941;" d="M105.936 191.995c10.531-1.244 21.062-2.487 36.913-1.754 9.903 2.276 14.487 2.575 19.071 2.873 2.963 0.497 5.092-0.61 7.61-7.507 3.874-6.129 6.526-8.069 9.178-10.010 0 0-0.511-0.33-0.339-0.074-0.24-1.477-0.651-3.211-3.521-7.735-4.378-4.154-6.297-5.519-8.217-6.883 3.294-1.389 6.587-2.779 9.881-4.168 2.276-4.372 4.552-8.744 8.373-18.093 7.071-9.065 12.596-13.153 18.122-17.241 51.154-10.212 20.723-55.721 35.354-85.017-17.557 6.463-34.927 16.562-52.755 25.773-6.507 3.362-14.106 4.611-23.958 6.54-10.235 10.102-17.718 20.488-27.292 33.048 19.586 35.677-8.343 54.634-26.264 81.505-2.184 4.338-2.156 8.744-2.156 8.744z" />
<glyph unicode="&#xe942;" d="M247.792 30.184c7.708-0.998 16.093-4.913 25.11-11.757-7.723 0.994-16.078 4.917-25.11 11.757z" />
<glyph unicode="&#xe943;" d="M104.891 194.016c1.045-2.021 1.017-6.427 1.026-8.63-4.357 0.081-8.723 2.364-15.341 5.647 2.922 2.335 8.096 3.669 14.315 2.983z" />
<glyph unicode="&#xe944;" d="M557.007 589.262c-30.913 28.164-62.947 13-94.416 1.73-7.958-2.85-14.161-13.472-21.699-14.091-23.997-1.97-48.244-0.91-72.394-1.021 4.703 20.948 8.937 42.016 14.215 62.818 8.962 35.321 20.722 67.835 72.518 51.537 31.286-30.576 48.649-28.505 66.015 3.311 60.604 7.892 112.352-7.687 137.419-66.897 9.701-22.915 2.759-52.876-2.768-80.467-10.51 5.413-14.983 11.581-19.157 17.945-3.451 5.261-6.549 10.754-12.796 16.837-24.308 3.227-45.623 5.762-66.938 8.297z" />
<glyph unicode="&#xe945;" d="M573.504 443.174c-8.437-10.974-16.874-21.948-28.021-36.297-4.606-4.771-6.502-6.166-8.398-7.562 3.243-1.434 6.486-2.868 9.728-4.302 7.467-55.050-2.921-61.040-85.094-47.035-6.662 52.812-17.648 106.424 37.016 144.679 26.756-89.745 71.31-0.41 106.092-17.039-1.329-4.357-3.218-10.553-5.108-16.749 0 0-0.084-1.397-3.513-1.22-9.853-4.707-16.277-9.592-22.701-14.476z" />
<glyph unicode="&#xe946;" d="M602.265 459.204c-0.658 5.862 1.232 12.059 2.56 16.415-34.782 16.629-79.335-72.706-103.154 18.411 16.001 21.392 32.412 39.134 54.892 58.48 30.903 1.967 59.164-6.092 70.373 27.763 3.255-5.39 6.353-10.883 9.804-16.144 4.174-6.364 8.647-12.532 15.902-19.171 2.449-38.547-8.697-70.334-50.378-85.754z" />
<glyph unicode="&#xe947;" d="M521.857 188.78c-16.672-0.536-33.343-1.071-51.761 5.054-1.798 41.5-1.85 76.34-1.901 111.18 25.766-1.548 51.533-3.095 78.664-11.079-7.424-39.342-16.213-72.248-25.002-105.154zM487.494 253.236c-2.259 0.425-4.517 0.85-6.776 1.275 0.063-1.301-0.085-3.671 0.224-3.732 2.27-0.451 4.632-0.439 6.552 2.457z" />
<glyph unicode="&#xe948;" d="M525.213 188.657c5.433 33.029 14.222 65.935 23.335 102.72 40.323-40.442 35.427-66.18-23.335-102.72z" />
<glyph unicode="&#xe949;" d="M623.945 580.965c-8.217-34.547-36.477-26.488-65.076-26.784-3.678 9.453-3.591 18.839-2.682 31.653 22.136 0.893 43.451-1.642 67.758-4.869z" />
<glyph unicode="&#xe94a;" d="M464.819 304.087c3.427-33.914 3.478-68.754 3.378-107.636-22.767 14.328-25.988 68.37-3.378 107.636z" />
<glyph unicode="&#xe94b;" d="M517.957 694.476c-14.076-32.745-31.439-34.816-59.010-4.962 18.374 4.205 37.047 5.048 59.010 4.962z" />
<glyph unicode="&#xe94c;" d="M160.935 195.898c-3.6-3.083-8.183-3.382-16.21-3.774-11.518 10.018-19.592 20.13-28.853 35.701-1.227 9.327-1.268 13.194-1.31 17.061 4.629-2.239 9.258-4.478 16.298-7.612 11.304-13.46 20.197-26.026 30.074-41.376z" />
<glyph unicode="&#xe94d;" d="M576.105 442.476c3.822 5.583 10.246 10.467 19.406 15.272-3.777-5.377-10.291-10.674-19.406-15.272z" />
<glyph unicode="&#xe94e;" d="M547.542 397.254c-3.972-0.807-7.215 0.627-10.458 2.061 1.896 1.395 3.792 2.791 7.606 4.387 2.472-1.268 3.027-2.738 2.852-6.448z" />
<glyph unicode="&#xe94f;" d="M177.901 178.047c-1.846-0.51-4.498 1.431-8.2 5.644 1.765 0.45 4.579-1.371 8.2-5.644z" />
<glyph unicode="&#xe950;" d="M202.486 124.127c-5.006 1.362-10.532 5.45-16.57 12.276 5.008-1.358 10.529-5.454 16.57-12.276z" />
<glyph unicode="&#xe951;" d="M176.466 158.888c-3.248-0.762-6.542 0.627-9.836 2.017 1.92 1.364 3.839 2.729 7.683 4.264 1.924 0.171 2.108-4.129 2.153-6.281z" />
<glyph unicode="&#xe952;" d="M112.864 243.48c1.74-2.461 1.781-6.329 1.818-13.094-1.175 1.964-2.346 6.826-1.818 13.094z" />
<glyph unicode="&#xe953;" d="M487.701 251.72c-2.127-1.381-4.488-1.393-6.758-0.942-0.31 0.061-0.161 2.431-0.224 3.732 2.259-0.425 4.517-0.85 6.982-2.791z" />
<glyph unicode="&#xe954;" d="M582.621 951.172c149.422 0 298.845 0 450.207 0 0-147.305 0-294.619-3.182-445.224-13.392-0.931-23.602 1.429-33.979 5.593-5.125 2.592-10.083 3.381-16.416 6.704-3.671 7.697-5.968 12.86-8.098 21.228-11.697 9.886-23.561 16.566-38.921 23.79-12.877 0.378-22.259 0.213-33.642 1.895-10.472 5-18.943 8.154-27.707 11.711-0.293 0.403-1.254 0.669-2.707 3.632 2.742 16.478 6.475 30.158 11.243 43.467 6.447 17.995 13.69 35.706 21.714 57.464 0.848 12.682-0.938 21.704 0.539 30.155 10.943 62.591-13.616 101.477-75.801 116.22-4.149 0.984-8.844 2.784-11.672 5.745-34.222 35.833-61.238 21.21-85.634-12.074 0.209-0.279-0.37 0.075-3.598 1.438-25.512-8.663-47.796-18.689-76.292-31.51-4.395 47.839-1.523 97.245-49.468 126.927-6.134 12.829-11.36 22.835-16.587 32.84z" />
<glyph unicode="&#xe955;" d="M1032.828 368.552c0-146.486 0-292.972 0-441.379-147.305 0-294.619 0-445.279 2.933-4.046 6.866-4.746 10.8-4.128 17.331 14.823 15.757 28.327 28.916 44.918 43.592 7.018 23.842 10.95 46.166 16.105 71.058 3.609 9.716 5.995 16.865 11.283 25.473 14.703 1.097 31.359 5.651 37.511-0.427 38.484-38.020 85.296-31.921 132.089-29.913 42.243 1.813 66.693 23.576 78.249 65.905 10.797 17.816 19.402 33.633 29.624 52.042-20.23 44.792-42.076 86.992-64.345 130.008 2.735 1.878 7.722 8.23 11.97 7.77 50.418-5.462 91.601 7.39 120.361 52.735 3.459 5.454 20.759 2.13 31.644 2.875z" />
<glyph unicode="&#xe956;" d="M450.207-72.828c-146.48 0-292.96 0-441.379 0 0 144.363 0 288.734 1.983 440.162 12.116 1.879 22.248-3.299 33.722-11.201 32.179-42.834 79.414-40.743 123.028-52.792 5.849-8.135 11.012-13.214 12.581-20.831-3.524-8.313-3.455-14.088-5.165-21.802-4.612-6.112-7.444-10.286-12.988-15.329-8.088-9.505-13.464-18.141-20.152-30.162-1.117-12.934-0.921-22.482-1.836-35.883-5.935-88.884-3.202-93.204 75.186-128.887 9.212-4.194 18.034-9.48 26.46-15.121 21.608-14.468 37.552-7.991 58.274 6.537 27.128 19.019 59.776 30.167 90.084 42.189 1.564-7.145 3.092-11.779 3.712-20.077 6.56-27.406 14.029-51.148 22.655-77.486 11.889-10.148 22.622-17.7 34.455-28.59 2.765-10.060 4.428-16.783 3.705-24.652-3.033-2.789-3.678-4.432-4.324-6.075z" />
<glyph unicode="&#xe957;" d="M8.828 500.966c0 149.416 0 298.832 0 450.207 144.362 0 288.734 0 440.769-1.553-6.668-23.981-21-46.41-38.199-70.242-6.486-12.316-10.105-23.23-14.725-36.833-2.292-15.918-3.581-29.146-6.388-43.842-3.202-3.907-3.795-6.587-2.501-9.881 0.794-0.372 0.836 1.381-2.397-0.202-20.42 2.98-37.551 7.766-54.807 12.051-21.792 5.41-43.685 10.411-68.496 16.729-18.719 1.239-34.477 1.338-53.214 2.078-6.802-0.582-10.624-1.804-17.003-2.215-10.27-5.412-17.984-11.637-28.698-19.246-12.679-20.508-22.356-39.631-33.754-59.542-1.721-0.787-2.011-4.56-4.356-6.448-20.476-23.914-20.414-46.027-4.956-69.939 17.217-26.634 32.759-54.35 47.971-83.496-1.059-1.9-0.713-6.237-3.757-6.899-6.719-2.564-10.394-4.465-16.287-5.121-6.845-0.039-11.472-1.325-19.624-1.807-53.276 5.282-74.273-36.225-107.352-62.922-5.787-0.564-9.007-0.721-12.227-0.878z" />
<glyph unicode="&#xe958;" d="M1032.828 372.595c-10.885-4.788-28.184-1.464-31.644-6.919-28.76-45.345-69.942-58.197-120.361-52.735-4.248 0.46-9.235-5.892-11.97-7.77 22.269-43.016 44.115-85.216 60.833-129.521-23.304 10.643-41.479 23.391-52.711 31.27-17.168-14.472-27.924-23.539-41.111-30.785-20.957 41.561-39.484 81.301-54.994 121.324 7.195 3.509 11.374 6.734 15.552 9.96-4.548 2.989-9.097 5.977-13.47 12.035 9.804 15.59 19.433 28.111 30.513 37.94 33.064-42.649 49.593-42.116 70.597 3.288-12.070-0.872-22.094-1.596-34.225-2.472-0.757 11.749-1.488 23.087 0.373 36.836 21.344 4.063 40.096 5.715 58.911 4.587 2.883-7.242 5.702-11.704 8.522-16.167 3.018 7.178 6.037 14.357 11.215 22.856 18.682 28.055 16.363 51.229-11.577 72.387-12.078 1.424-23.341 0.176-37.289-2.42-9.647 1.586-16.609 4.52-23.902 10.926-11.047 9.062-21.763 14.652-34.999 21.457-16.169 21.768-29.82 42.323-40.295 62.873 10.969 5.438 23.735 9.574 25.576 16.58 4.55 17.319 4.096 35.953 8.617 54.065 6.914 0.015 10.864 0.024 15.166-2.743 3.11-9.668 5.868-16.561 8.737-26.827 10.32-13.943 20.528-24.513 30.737-35.082 0 0 0.961-0.266 0.591-3.498 0.985-8.853 2.34-14.475 2.879-20.495-0.815-0.399-0.946-2.551-0.946-2.551s1.792 2.92 4.76 3.001c9.872 3.16 16.775 6.238 23.679 9.316 9.382 0.165 18.763 0.329 32.949-2.761 15.685-10.264 26.565-17.273 37.446-24.282 2.297-5.163 4.594-10.326 9.801-19.46 6.956-5.005 11.002-6.037 15.047-7.070 10.21-2.36 20.42-4.72 33.812-7.926 3.182-4.769 3.182-8.692 0.798-16.056-0.795-8.993 0.795-14.547 2.384-20.1 0-29.672 0-59.344 0-93.060zM960.124 479.456c1.589 2.265 3.178 4.53 4.767 6.795-2.355-1.45-4.709-2.9-4.767-6.795zM834.766 255.904c2.28-1.596 4.56-3.192 6.84-4.789-1.459 2.369-2.919 4.739-6.84 4.789zM842.967 222.566c0 0-0.208 0.473 0 0zM931.283 363.867c0 0-0.186 0.455 0 0z" />
<glyph unicode="&#xe959;" d="M456.918-65.607c-1.664 6.723-3.327 13.446-5.931 26.969-0.884 13.733-0.828 20.666 1.008 29.211 1.935 6.734 2.089 11.857 2.244 16.979-7.143-6.183-14.286-12.366-24.362-18.522-6.843 0.036-10.754 0.045-14.664 0.053-7.469 23.742-14.938 47.484-18.867 75.417 6.426 7.943 9.311 11.696 12.197 15.449-6.191 2.204-12.383 4.409-18.574 6.613-30.273-14.534-62.921-25.681-90.049-44.7-20.722-14.528-36.666-21.005-58.274-6.537-8.426 5.642-17.248 10.927-26.46 15.121-78.388 35.684-81.12 40.004-72.004 129.003 11.079 12.703 17.866 21.437 28.513 30.181 24.415 0.006 44.97 0.002 65.228-3.033-11.416-11.564-22.535-20.097-35.374-29.95 9.166-16.175 18.263-32.227 27.684-50.452 6.359-2.259 12.394-2.346 20.76-0.448 12.325 7.31 22.319 12.634 32.696 14.783 40.078-36.176 67.028-22.419 91.363 42.369 22.196-10.739 41.147-22.238 57.774-34.373-5.168-3.123-8.013-5.61-10.858-8.098 1.64-1.333 3.28-2.666 4.92-3.999 2.654 4.345 5.309 8.691 10.968 12.419 25.238-19.397 54.107-34.188 43.089-71.554-7.018-2.634-11.535-5.168-16.051-7.702 5.004-3.446 10.009-6.893 16.763-13.279 6.941-28.585 20.433-43.686 50.124-43.099 3.437-18.994 5.506-34.84 5.425-52.591-6.559-12.421-10.968-22.936-15.377-33.451-18.023 0-36.046 0-57.992 1.279-4.2 2.999-4.865 4.553-5.918 5.941zM422.958 34.803c0 0-2.204 0.121-2.204 0.121s2.918-1.859 2.985-6.487c1.017-3.866 2.033-7.731 3.050-11.597 1.896 0.984 3.791 1.967 5.686 2.951-2.905 4.455-5.809 8.91-9.518 15.012zM425.715 99.125c-1.252-0.062-2.503-0.124-3.755-0.186 0.835-0.398 1.67-0.795 3.755 0.186z" />
<glyph unicode="&#xe95a;" d="M414.265 880.781c14.332 22.429 28.664 44.857 39.469 68.839 3.094 1.553 9.715 1.553 19.506-1.543-0.28-14.333-3.731-25.57-7.582-38.108 44.049-9.739 67.046 16.193 90.48 41.203 6.621 0 13.241 0 23.172 0 8.537-10.005 13.763-20.010 17.916-35.042-20.2-23.615-39.326-42.204-62.258-61.070-24.81-0.934-52.603 4.623-49.383-29.058 4.332-45.314-17.169-72.98-54.24-91.23-29.328 8.725-51.116 20.152-42.727 55.43 0 0-0.042-1.753 3.864-3.085 7.133-2.11 10.36-2.889 13.95-4.556 0.364-0.889 2.7-1.036 2.7-1.036s-3.067 1.921-2.369 4.304c-4.522 6.369-9.743 10.355-14.964 14.341 1.29 13.228 2.579 26.456 8.065 42.504 12.856 8.968 21.516 15.115 30.176 21.263-5.259 5.614-10.518 11.229-15.778 16.843z" />
<glyph unicode="&#xe95b;" d="M8.828 496.851c3.22 4.272 6.44 4.429 14.881 2.422 7.371-27.324 9.522-52.484 9.843-79.742 2.535-21.173 6.9-40.249 10.927-59.744-0.338-0.419-1.286-0.931-1.286-0.931-10.132 5.178-20.265 10.356-32.381 12.615-1.983 38.475-1.983 79.87-1.983 125.379z" />
<glyph unicode="&#xe95c;" d="M552.166 951.172c-19.461-25.010-42.459-50.942-86.507-41.203 3.85 12.537 7.301 23.775 10.892 38.108 23.974 3.096 47.809 3.096 75.616 3.096z" />
<glyph unicode="&#xe95d;" d="M524.69-72.828c0.547 10.515 4.956 21.030 14.483 32.98 17.722-4.148 30.326-9.731 42.929-15.314 0.7-3.933 1.4-7.867 1.309-14.733-18.814-2.933-36.837-2.933-58.722-2.933z" />
<glyph unicode="&#xe95e;" d="M538.774 855.338c19.126 18.589 38.252 37.177 59.359 57.968 49.019-24.656 46.147-74.061 50.542-121.9 28.496 12.821 50.78 22.847 77.5 28.548 8.181-9.667 11.927-15.009 15.673-20.351 2.183 2.155 4.366 4.309 6.55 6.463-6.68 5.23-13.361 10.46-20.041 15.69 24.605 33.005 51.621 47.628 85.843 11.795 2.828-2.961 7.523-4.762 11.672-5.745 62.184-14.743 86.744-53.629 75.801-116.22-1.478-8.451 0.309-17.472-4.073-30.298-31.32-2.82-57.983-1.571-83.187 2.507 6.261 17.013 19.308 36.946 14.224 44.236-12.226 17.533-28.588 38.127-57.502 15.94-21.775-16.709-48.177-27.672-73.185-39.822-50.284-24.429-110.694 8.064-112.35 59.202 2.284-1.27 3.354-1.317 4.425-1.365-1.696 1.397-3.392 2.794-5.517 0.365-6.962 1.128-13.496 6.082-19.838 14.721 5.5 22.669 12 41.432 15.579 60.737 1.62 8.74-2.565 18.556-4.117 27.884-6.678-3.772-13.357-7.545-22.737-11.207-6.303 0.155-9.905 0.199-13.94 0.112-0.433-0.132-0.679 0.74-0.679 0.74z" />
<glyph unicode="&#xe95f;" d="M812.953 680.966c26.663-1.249 53.326-2.497 83.523-3.603-3.368-17.69-10.61-35.401-17.057-53.396-4.768-13.309-8.502-26.989-11.243-43.467-8.756 7.607-18.964 18.176-27.378 34.102-2.469 12.778-6.732 20.199-10.995 27.62-3.951-0.009-7.901-0.018-18.387-0.019-13.684 0.213-20.833 0.418-27.701 3.435 9.933 13.65 19.586 24.489 29.239 35.329z" />
<glyph unicode="&#xe960;" d="M971.152 539.473c-11.047 3.804-21.928 10.813-34.117 20.534 10.556-3.968 22.42-10.649 34.117-20.534z" />
<glyph unicode="&#xe961;" d="M873.913 553.944c-1.355 5.621-2.71 11.243-3.402 19.693 9.134-0.325 17.605-3.479 28.077-8.479-4.902-4.924-11.806-8.002-21.684-11.153-2.974-0.073-2.992-0.060-2.992-0.060z" />
<glyph unicode="&#xe962;" d="M728.565 821.478c6.472-4.951 13.152-10.181 19.832-15.411-2.183-2.154-4.366-4.309-6.55-6.463-3.746 5.342-7.492 10.684-12.445 18.988-1.207 2.962-0.629 2.608-0.838 2.887z" />
<glyph unicode="&#xe963;" d="M995.667 511.541c-3.879-0.771-7.925 0.262-13.506 2.732 3.423 0.649 8.381-0.14 13.506-2.732z" />
<glyph unicode="&#xe964;" d="M901.383 121.123c-9.364-40.329-33.814-62.092-76.057-63.905-46.793-2.008-93.605-8.107-132.089 29.913-6.152 6.078-22.809 1.525-40.599 0.651-9.706 8.817-18.605 20.493-16.069 28.584 5.395 17.213 16.733 32.564 27.803 50.886 3.785 5.925 5.403 9.643 10.151 14.031 46.295 10.743 69.746-20.413 96.129-44.505 16.267-14.854 29.803-23.921 45.094 1.508 4.799 7.981 15.971 12.129 27.279 17.985 67.592-10.566-18.84-37.379 10.489-51.231 14.721 4.946 31.294 10.514 47.867 16.082zM716.402 117.117c-0.527 2.768-1.054 5.536-1.582 8.304-0.627-2.746-1.255-5.492 1.582-8.304zM748.894 96.943c-0.796 1.781-1.353 3.753-2.534 5.226-0.348 0.434-2.457-0.543-3.758-0.873 1.104-1.67 2.207-3.341 6.292-4.353zM693.366 143.352c0 0-0.575-0.277 0 0z" />
<glyph unicode="&#xe965;" d="M662.205 165.045c-8.902-16.114-20.24-31.464-25.635-48.677-2.536-8.092 6.362-19.768 13.167-30.043 0.701-7.373-1.685-14.521-8.151-24.429-9.27-7.554-14.498-12.308-19.639-17.154-7.225-6.812-14.386-13.694-23.13-17.88-15.687 9.726-29.819 16.787-43.911 27.195 9.773 20.556 24.96 36.82 28.136 55.164 7.169 41.409 28.782 64.2 70.357 67.78 3.599-5.877 6.203-8.916 8.807-11.955z" />
<glyph unicode="&#xe966;" d="M903.575 123.123c-18.765-7.567-35.338-13.136-50.059-18.082-29.328 13.852 57.103 40.666-11.105 54.2-3.819 7.034-3.968 11.053-4.117 15.073 10.757 9.068 21.513 18.135 38.681 32.607 11.232-7.879 29.408-20.627 51.095-33.862-5.093-16.303-13.698-32.12-24.495-49.936z" />
<glyph unicode="&#xe967;" d="M583.42-52.563c-13.922 2.985-26.525 8.567-42.097 14.622-5.037 16.317-7.106 32.162-9.584 53.127 1.669 7.404 4.249 8.651 9.522 7.854 6.452-3.269 10.713-5.531 15.577-10.45 14.911-6.699 29.22-10.74 46.162-15.062 9.173-2.858 15.713-5.437 22.253-8.016-13.504-13.159-27.009-26.318-41.831-42.075z" />
<glyph unicode="&#xe968;" d="M628.338-8.972c-9.626 1.062-16.166 3.641-25.347 9.798-2.634 10.175-2.626 16.772-2.618 23.368 7.188 6.852 14.348 13.733 21.574 20.545 5.14 4.847 10.369 9.6 18.416 14.587-1.074-22.133-5.006-44.457-12.024-68.299z" />
<glyph unicode="&#xe969;" d="M35.381 421.629c-2.15 25.16-4.301 50.32-9.105 78.051 27.858 28.86 48.855 70.367 103.313 63.333 10.024-0.933 15.342 0.69 20.659 2.313 3.675 1.902 7.35 3.803 15.487 4.532 9.716-0.125 14.969 0.924 23.277 1.402 43.71-14.965 34.094-31.087 5.401-49.416-18.285-11.68-35.342-25.285-56.287-38.176-10.007-0.221-16.676-0.292-25.902 1.053-49.855 30.040-26.076-14.643-32.368-31.922 0.697-6.723 0.982-9.412 3.891-12.009 2.779-1.652 2.934-3.395-0.993-4.197-9.638 1.484-15.194 2.028-21.931 1.681-2.764-3.828-2.025-6.244 4.15-9.991 9.59 0.263 16.067 2.38 25.366 2.956 38.616-19.012 74.012-37.36 110.289-53.758 62.232-28.129 81.5-114.637 36.589-167.852-20.554 0.004-41.109 0.008-67.412 1.979-12.719 3.643-19.688 5.319-26.658 6.994 5.376 8.636 10.752 17.272 22.015 26.434 17.874 0.526 29.86 0.526 41.846 0.526 0.192 3.962 0.384 7.924 0.576 11.886-10.277 1.733-20.553 3.465-30.83 5.198-0.070 5.775-0.139 11.55 3.975 21.899-1.83 10.333-7.843 16.092-13.857 21.85-42.928 8.993-90.163 6.902-122.342 49.736-1.341 2.724-0.393 3.235 3.152 3.544 9.962 0.31 16.38 0.311 25.202 0.724 4.939 3.115 7.473 5.817 10.007 8.519-4.091 2.809-8.181 5.618-13.502 11.049-12.157 15.635-23.084 28.647-34.011 41.659z" />
<glyph unicode="&#xe96a;" d="M141.837 215.217c8.282 1.71 15.251 0.034 24.109-3.619-4.898-10.712-11.684-19.446-21.652-28.296-3.378 9.433-3.574 18.981-2.457 31.915z" />
<glyph unicode="&#xe96b;" d="M174.977 260.708c12.057 0.206 22.333-1.527 32.61-3.259-0.192-3.962-0.384-7.924-0.576-11.886-11.986 0-23.972 0-39.134 0.343-0.343 4.517 2.489 8.69 7.101 14.803z" />
<glyph unicode="&#xe96c;" d="M450.216-11.039c-0.056-6.933-0.112-13.866-0.33-24.263-10.894 4.090-21.626 11.642-33.516 21.79 2.754 2.587 6.664 2.578 16.405 2.534 9.7-0.044 13.57-0.052 17.441-0.061z" />
<glyph unicode="&#xe96d;" d="M167.561 303.341c5.327-2.703 11.341-8.461 16.764-16.256-5.753 3.042-10.916 8.121-16.764 16.256z" />
<glyph unicode="&#xe96e;" d="M390.004 84.051c6.157 0.307 12.348-1.897 18.54-4.101-2.885-3.753-5.771-7.505-11.287-11.785-4.16 4.107-5.689 8.74-7.252 15.886z" />
<glyph unicode="&#xe96f;" d="M385.386 788.619c-5.156-33.694 16.633-45.121 44.25-56.285-8.125-9.93-15.46-14.892-25.543-19.652-7.186-4.732-11.623-9.664-19.769-15.6-51.676-7.51-90.237 7.455-120.728 46.166-6.403 8.129-21.901 9.093-36.19 12.936-7.35-8.508-11.717-16.593-15.927-24.961 0.158-0.282-0.487-0.329-3.376-1.041-6.527-9.183-10.165-17.653-15.58-27.754-9.409 5.358-17.043 12.346-25.049 21.867-3.028 6.755-5.685 10.978-8.351 17.225-0.010 2.024-0.116 6.071 1.726 7.297 3.7 3.498 5.558 5.77 9.115 9.199 3.797 2.988 5.436 5.165 9.169 8.256 6.799 17.105 11.044 33.642 15.289 50.179 3.822 1.223 7.644 2.446 15.831 0.471 21.884-16.475 39.926-40.17 54.791-0.662 21.849-5.178 43.743-10.179 65.534-15.589 17.256-4.284 34.387-9.071 54.807-12.051z" />
<glyph unicode="&#xe970;" d="M167.848 721.762c7.634-6.988 15.267-13.977 26.813-19.371 3.912 1.594 8.186 1.555 10.023 0.471 4.079-2.903 5.866-5.095 7.187-9.899-0.034-3.734-0.057-5.228-1.228-7.623-2.63-3.886-1.751-6.177 3.572-7.803 2.085-0.029 6.254-0.087 8.771-2.079 8.154-14.968 11.765-29.38 19.769-40.681 41.384-58.43-9.031-137.346-72.598-153.251-12.284 1.292-20.488 1.792-28.692 2.292 17.607 12.742 34.664 26.346 52.949 38.026 28.694 18.329 38.309 34.451-6.988 51.317-9.192 4.091-13.742 5.711-18.292 7.331-16.271 27.245-31.813 54.962-49.030 81.596-15.458 23.912-15.52 46.026 7.407 68.012 15.132-9.279 20.556-39.557 40.339-8.339z" />
<glyph unicode="&#xe971;" d="M159.009 747.59c0 0 0.106-4.047-3.389-6.142-10.492-2.125-17.489-2.155-24.486-2.185 9.678 19.124 19.355 38.247 32.522 55.24 6.634-11.020 9.779-19.91 12.923-28.8-1.179-2.523-2.818-4.7-8.552-8.808-5.431-4.62-7.225-6.963-9.019-9.306z" />
<glyph unicode="&#xe972;" d="M411.397 879.378c8.127-4.211 13.386-9.826 18.645-15.44-8.66-6.147-17.32-12.295-29.174-18.572 0.424 10.783 4.043 21.696 10.529 34.013z" />
<glyph unicode="&#xe973;" d="M262.083 817.399c-11.903-40.648-29.945-16.954-48.849-1.119 14.372 2.458 30.13 2.359 48.849 1.119z" />
<glyph unicode="&#xe974;" d="M179.134 766.271c-5.699 8.322-8.843 17.212-12.476 29.616 7.225 9.739 14.938 15.964 25.209 21.376-1.688-17.35-5.933-33.887-12.732-50.992z" />
<glyph unicode="&#xe975;" d="M129.414 738.475c8.718 0.817 15.715 0.847 26.216 0.948 6.161-4.152 8.817-8.374 11.845-15.13-19.411-33.75-24.835-3.473-37.622 7.694-2.451 1.927-2.16 5.7-0.439 6.488z" />
<glyph unicode="&#xe976;" d="M168.073 578.592c5.609 0.28 10.159-1.34 16.297-4.861-3.666-2.95-8.919-3.998-15.591-3.211-1.418 1.835-1.764 6.172-0.705 8.072z" />
<glyph unicode="&#xe977;" d="M148.030 566.573c-3.1-2.87-8.418-4.493-14.917-4.363 3.445 3.038 8.072 4.324 14.917 4.363z" />
<glyph unicode="&#xe978;" d="M390.284 798.703c6.737-2.518 11.958-6.504 16.482-12.872-0.697-2.382-0.696-2.38-0.696-2.38-3.227 0.779-6.454 1.557-14.381 4.040-5.2 4.625-4.608 7.306-1.405 11.213z" />
<glyph unicode="&#xe979;" d="M211.88 695.203c-1.331 2.563-3.118 4.755-6.76 10.568 1.024 11.036 3.448 18.079 5.873 25.122 0 0 0.646 0.046 3.298 0.959 7.134 8.86 11.617 16.806 16.099 24.753 11.307-4.266 26.805-5.23 33.208-13.358 30.49-38.71 69.051-53.675 123.474-46.851 10.894 5.574 15.332 10.829 19.771 16.085 7.335 4.962 14.669 9.923 23.714 17.324 37.861 23.218 59.363 50.884 55.030 96.198-3.22 33.681 24.573 28.124 49.383 29.058 3.805 0.277 4.051-0.595 4.448-3.771 4.773-9.207 9.148-15.238 12.176-24.819 3.396-20.061 8.14-36.572 12.884-53.084 6.534-4.954 13.067-9.908 19.931-11.47 0.33 3.392-0.022 2.657-0.022 2.657 2.869-52.361 63.279-84.854 113.563-60.425 25.008 12.15 51.41 23.113 73.185 39.822 28.914 22.187 45.276 1.593 57.502-15.94 5.084-7.29-7.963-27.223-14.224-44.236-11.112-13.668-20.765-24.508-33.035-40.888-2.997-27.481-3.377-49.42-3.756-71.359 13.65-20.554 27.301-41.109 44.835-65.571 13.911-10.017 23.937-16.125 33.964-22.234 6.962-2.934 13.925-5.868 27.076-8.105 15.659 0.598 25.129 0.498 34.599 0.399 27.126-18.487 29.445-41.661 7.75-68.837-9.043-1.891-12.915-3.34-16.787-4.788-18.752-1.652-37.504-3.303-61.561-7.889-15.365-13.435-25.424-23.935-35.484-34.436-9.629-12.521-19.257-25.043-30.814-41.936-2.401-9.906-2.874-15.44-3.347-20.974 18.527-39.74 37.054-79.48 58.011-121.041 2.579-5.84 2.729-9.86 3.494-16.847-7.639-8.871-18.811-13.019-23.61-21-15.291-25.429-28.828-16.362-45.094-1.508-26.383 24.091-49.834 55.248-97.866 45.6-10.040-0.565-15.212-1.554-20.384-2.543-40.58-6.418-62.193-29.208-69.362-70.617-3.176-18.344-18.362-34.608-30.057-57.097-2.577-8.79-3.192-12.299-5.609-16.838-3.969-4.433-6.138-7.836-8.306-11.239-3.081-0.209-5.661-1.455-8.698-5.711-29.282-5.707-42.774 9.394-48.402 40.852-0.132 9.945 0.172 14.077 0.476 18.209 8.516 37.266-20.352 52.057-45.999 70.905-3.413 0.068-2.298 0.863-2.298 0.863-18.95 11.499-37.9 22.998-63.27 34.499-21.907-7.198-37.394-14.398-55.433-20.575-9.196-4.576-15.841-10.174-25.229-16.439-4.466-1.425-6.189-2.182-7.912-2.939-9.994-5.325-19.987-10.65-35.284-16.657-9.573-0.016-13.843 0.651-18.112 1.318-9.097 16.052-18.194 32.105-27.36 48.28 12.839 9.853 23.958 18.386 35.374 29.95 45.207 56.246 25.939 142.754-36.293 170.883-36.277 16.398-71.673 34.746-110.366 54.246-2.9 2.030-3.426 3.926-3.426 3.926-0.155 1.743-0.311 3.486-2.669 5.237-2.203 0.007-1.488-0.599 2.733-0.762 9.195 6.305 14.168 12.773 21.341 18.711 3.161 2.067 4.123 4.662 5.628 7.45 0.543 0.191 0.093 1.252 3.488 1.824 21.222 4.589 39.050 8.605 56.878 12.622 59.486 16.697 109.901 95.613 68.518 154.043-8.004 11.301-11.615 25.713-19.79 43.569-5.386 8.872-8.235 12.865-11.084 16.858zM550.253 597.27c-3.858-0.455-7.715-0.909-19.078 0.488-15.322-0.957-30.643-1.914-52.669-1.56-24.181-10.937-48.362-21.874-77.799-34.104-4.061-5.771-8.122-11.542-17.169-19.823-4.256-7.884-8.512-15.768-16.813-29.702-1.237-30.387-2.474-60.774-4.879-97.952 2.748-15.351 5.496-30.701 8.139-52.379 11.397-6.946 22.795-13.892 34.93-27.49 9.708-34.379 30.426-54.492 68.105-53.847 29.245 0.501 58.512-0.282 87.758 0.18 66.71 1.054 114.788 55.195 110.677 130.338-0.532 18.096-1.063 36.192-0.364 61.78 2.803 58.104-19.928 88.752-92.107 122.439-7.699-0.010-15.398-0.019-28.73 1.631z" />
<glyph unicode="&#xe97a;" d="M813.466 357.394c8.608 13.194 18.668 23.694 31.44 34.717 3.444-10.815 4.175-22.153 4.933-33.902 12.13 0.876 22.155 1.6 34.225 2.472-21.004-45.404-37.533-45.937-70.597-3.288z" />
<glyph unicode="&#xe97b;" d="M780.796 571.544c-2.796 21.943-2.416 43.882 0.301 68.552 9.486 2.525 16.634 2.319 27.355 2.1 2.015-18.119 2.469-36.753-2.081-54.072-1.841-7.006-14.606-11.142-25.575-16.58z" />
<glyph unicode="&#xe97c;" d="M856.090 487.215c-9.697 2.637-19.723 8.746-31.115 17.548 9.352-2.896 20.068-8.486 31.115-17.548z" />
<glyph unicode="&#xe97d;" d="M917.281 478.709c-8.656-2.572-18.126-2.473-31.101-1.723 7.759 1.899 19.023 3.147 31.101 1.723z" />
<glyph unicode="&#xe97e;" d="M830.154 639.446c3.911-4.645 8.174-12.066 10.532-21.47-4.664 4.91-7.422 11.802-10.532 21.47z" />
<glyph unicode="&#xe97f;" d="M780.87 297.46c-2.544 5.251-2.071 10.785 0.154 17.622 6.301-1.685 10.85-4.674 15.398-7.662-4.179-3.226-8.357-6.451-15.553-9.96z" />
<glyph unicode="&#xe980;" d="M909.122 399.633c3.809 4.227 7.68 5.676 14.565 6.246-0.006-8.056-3.024-15.235-6.043-22.413-2.82 4.463-5.639 8.926-8.522 16.167z" />
<glyph unicode="&#xe981;" d="M958.975 480.678c1.206 2.672 3.561 4.122 5.915 5.572-1.589-2.265-3.178-4.53-5.915-5.572z" />
<glyph unicode="&#xe982;" d="M835.997 257.063c2.691-1.21 4.15-3.579 5.609-5.948-2.28 1.596-4.56 3.192-5.609 5.948z" />
<glyph unicode="&#xe983;" d="M842.863 222.802c-0.104 0.236 0.104-0.236 0 0z" />
<glyph unicode="&#xe984;" d="M931.19 364.095c-0.093 0.228 0.093-0.228 0 0z" />
<glyph unicode="&#xe985;" d="M873.937 553.922c0.007-0.009-1.785-2.928-1.785-2.928s0.13 2.151 0.946 2.551c0.815 0.399 0.833 0.387 0.84 0.378z" />
<glyph unicode="&#xe986;" d="M317.997 162.064c15.487 7.2 30.975 14.399 49.636 20.838-17.916-64.789-44.865-78.546-84.943-42.37 1.339 3.933 3.062 4.69 10.266 6.079 12.001 5.573 18.522 10.513 25.042 15.453z" />
<glyph unicode="&#xe987;" d="M451.995-9.427c-5.65-1.603-9.52-1.595-16.287-1.578 4.246 6.191 11.389 12.375 18.532 18.558-0.155-5.123-0.31-10.245-2.244-16.979z" />
<glyph unicode="&#xe988;" d="M479.944 77.295c2.197-4.032 1.893-8.164 0.276-15.169-6.318 0.573-11.323 4.020-16.327 7.466 4.517 2.534 9.033 5.068 16.051 7.702z" />
<glyph unicode="&#xe989;" d="M229.233 126.196c3.946 1.505 8.215 0.839 15.457-1.131-3.063-1.215-9.098-1.128-15.457 1.131z" />
<glyph unicode="&#xe98a;" d="M433.442 148.917c-2.246-3.796-4.9-8.142-7.555-12.487-1.64 1.333-3.28 2.666-4.92 3.999 2.845 2.487 5.69 4.975 10.858 8.098 2.323 0.635 1.208-0.159 1.617 0.39z" />
<glyph unicode="&#xe98b;" d="M423.762 33.156c2.905-4.455 5.809-8.91 8.714-13.365-1.895-0.984-3.791-1.967-5.686-2.951-1.017 3.866-2.033 7.731-3.058 13.93-0.008 2.333 0.031 2.386 0.031 2.386z" />
<glyph unicode="&#xe98c;" d="M425.091 98.435c-1.46-0.292-2.295 0.106-3.13 0.503 1.252 0.062 2.503 0.124 3.13-0.503z" />
<glyph unicode="&#xe98d;" d="M423.698 33.084c-0.026-0.019-2.944 1.84-2.944 1.84s2.204-0.121 2.606-0.945c0.402-0.823 0.364-0.876 0.338-0.895z" />
<glyph unicode="&#xe98e;" d="M406.068 783.447c-0.001-0.001 3.066-1.922 3.066-1.922s-2.336 0.147-2.7 1.036c-0.364 0.889-0.365 0.886-0.366 0.886z" />
<glyph unicode="&#xe98f;" d="M70.482 359.989c-6.417-0.001-12.835-0.002-22.459 0.108-7.572 19.186-11.937 38.261-14.472 59.435 12.756-10.914 23.683-23.926 35.83-42.456 1.18-9.374 1.14-13.231 1.1-17.087z" />
<glyph unicode="&#xe990;" d="M564.668 777.072c-4.935 12.826-9.68 29.338-12.026 51.644 2.75 12.416 3.101 19.038 3.453 25.66 6.678 3.772 13.357 7.545 20.035 11.317 1.552-9.328 5.737-19.144 4.117-27.884-3.578-19.305-10.079-38.068-15.579-60.737z" />
<glyph unicode="&#xe991;" d="M553.394 854.486c2.35-6.732 1.998-13.353 0.597-22.22-5.425 3.786-9.801 9.817-14.14 19.156 3.638 3.264 7.24 3.219 13.543 3.065z" />
<glyph unicode="&#xe992;" d="M585.599 763.351c-1.213 1.223-0.861 1.958-0.763 2.392 1.795-0.963 3.491-2.36 5.187-3.757-1.071 0.047-2.141 0.094-4.425 1.365z" />
<glyph unicode="&#xe993;" d="M714.671 117.149c-1.104 2.779-0.477 5.525 0.15 8.271 0.527-2.768 1.054-5.536-0.15-8.271z" />
<glyph unicode="&#xe994;" d="M653.399 177c4.177 3.826 9.349 4.815 16.258 4.709 0.119-4.813-1.499-8.53-5.284-14.455-4.771 0.831-7.375 3.87-10.974 9.746z" />
<glyph unicode="&#xe995;" d="M747.403 96.614c-2.594 1.341-3.698 3.012-4.801 4.682 1.302 0.33 3.411 1.307 3.758 0.873 1.18-1.473 1.738-3.445 1.043-5.555z" />
<glyph unicode="&#xe996;" d="M693.079 143.214c-0.288-0.138 0.287 0.138 0 0z" />
<glyph unicode="&#xe997;" d="M549.176 36.314c0.616 3.509 1.231 7.018 3.769 12.46 16.053-5.127 30.185-12.188 45.872-21.914 1.548-9.262 1.54-15.859 1.54-25.755-14.301 0.743-28.609 4.785-42.137 13.509-2.494 10.355-5.769 16.027-9.044 21.699z" />
<glyph unicode="&#xe998;" d="M547.376 35.284c5.075-4.642 8.35-10.315 10.242-18.013-5.644 0.237-9.905 2.499-16.357 5.768-0.023 4.409 2.146 7.812 6.115 12.245z" />
<glyph unicode="&#xe999;" d="M106.043 459.368c-4.973-6.468-9.946-12.935-18.529-16.272-5.096 6.666-6.582 10.202-8.068 13.738 6.703 13.244-17.076 57.927 32.61 25.261 2.228-7.547 2.068-11.050 1.908-14.554 0 0 0.45-1.061-1.615-2.008-3.985-2.274-5.399-4.013-6.306-6.164z" />
<glyph unicode="&#xe99a;" d="M117.358 468.112c-3.234 2.932-3.074 6.435-2.745 12.566 6.838 2.698 13.507 2.769 23.513 2.99 11.542-0.35 19.746-0.85 32.030-2.142-13.748-4.808-31.576-8.825-52.798-13.414z" />
<glyph unicode="&#xe99b;" d="M72.887 360.401c-2.365 3.444-2.325 7.3-2.275 14.051 4.101 0.086 8.192-2.723 12.282-5.532-2.534-2.702-5.068-5.405-10.007-8.519z" />
<glyph unicode="&#xe99c;" d="M82.755 436.593c4.082-0.941 4.608-2.837 4.685-3.325-6.399-2.605-12.876-4.722-22.423-2.727-3.051 5.616-3.032 7.119-3.012 8.623 5.556-0.544 11.112-1.087 20.75-2.571z" />
<glyph unicode="&#xe99d;" d="M60.824 438.274c1.161-0.613 1.142-2.117 1.079-5.879-3.104-0.365-3.843 2.051-1.079 5.879z" />
<glyph unicode="&#xe99e;" d="M79.857 452.799c1.075 0.499 2.562-3.037 3.435-9.541-0.613-2.968-1.327-2.361-1.748-2.46-0.706 2.59-0.991 5.278-1.688 12.001z" />
<glyph unicode="&#xe99f;" d="M208.104 730.181c0.464-6.331-1.96-13.374-4.82-23.326-0.437-2.909-4.711-2.87-6.847-2.833 1.502 8.507 5.141 16.977 11.668 26.16z" />
<glyph unicode="&#xe9a0;" d="M227.407 756.183c-1.5-7.524-5.983-15.471-13.275-24.048 1.558 7.455 5.925 15.541 13.275 24.048z" />
<glyph unicode="&#xe9a1;" d="M404.093 712.682c-1.69-5.457-6.129-10.712-13.314-15.283 1.691 5.618 6.128 10.551 13.314 15.283z" />
<glyph unicode="&#xe9a2;" d="M160.85 748.816c-0.047 1.117 1.747 3.461 5.479 6.923 0.079-1.153-1.779-3.425-5.479-6.923z" />
<glyph unicode="&#xe9a3;" d="M211.87 692.962c2.859-1.752 5.708-5.745 8.578-12.625 0.021-2.888-4.148-2.83-6.354-0.634s-2.304 6.537-2.304 6.537c0.024 1.494 0.047 2.987 0.081 6.722z" />
<glyph unicode="&#xe9a4;" d="M210.642 685.339c1.147 0.901 1.245-3.44 1.366-5.607-3.118-0.57-3.996 1.721-1.366 5.607z" />
<glyph unicode="&#xe9a5;" d="M670.132 403.755c5.435-67.479-42.644-121.619-109.353-122.673-29.246-0.462-58.513 0.32-87.758-0.18-37.68-0.645-58.397 19.468-65.143 57.252 19.979 3.405 36.994 3.405 60.967 3.405-21.694 17.184-33.505 26.539-43.845 38.35 7.404 7.081 13.336 11.707 21.858 16.033 23.43-9.908 44.271-19.517 66.051-32.090 23.904-30.008 50.924-24.418 82.206-12.636 45.662-7.441 55.41 29.258 75.016 52.539z" />
<glyph unicode="&#xe9a6;" d="M444.269 396.241c-5.933-4.626-11.865-9.251-22.596-16.903-20.393-5.608-35.988-8.19-51.583-10.771-2.748 15.351-5.496 30.701-4.68 49.972 10.845 17.34 19.55 30.216 24.958 44.353 4.343 11.353 1.456 32.874 7.323 35.071 47.059 17.62 30.371 40.641 8.272 65.426 24.181 10.937 48.362 21.874 76.387 29.512 12.411-12.16 20.978-21.021 29.689-33.16 3.049-18.149 5.955-33.020 5.917-48.616-6.914-0.194-10.886 0.337-15.113 3.907-9.925 36.008-31.84 15.092-43.565 8.683-7.008-3.831-4.683-24.738-6.351-41.494-2.752-31.009-5.705-58.494-8.658-85.978z" />
<glyph unicode="&#xe9a7;" d="M520.899 511.849c-2.905 14.871-5.81 29.742-5.928 47.939 9.738 6.129 16.69 8.931 26.117 12.028 6.675 2.753 10.874 5.212 18.289 7.818 10.101 4.1 16.985 8.052 23.87 12.004 67.917-29.687 90.648-60.334 84.153-122.041-25.509 2.374-47.325 8.35-70.198 17.308-26.138 10.303-51.22 17.623-76.303 24.943zM553.388 544.207c-1.175-0.785-2.747-1.333-3.402-2.429-0.538-0.9-0.269-3.458 0.122-3.567 11.005-3.079 22.072-5.94 33.128-8.837 0.616 3.629 1.231 7.259 1.847 10.888-8.798 1.551-17.596 3.103-31.695 3.945z" />
<glyph unicode="&#xe9a8;" d="M598.257 483.924c21.817-5.976 43.633-11.952 68.526-18.072 3.608-18.24 4.14-36.336 4.010-58.264-20.268-27.113-30.015-63.812-76.663-53.312-11.371 7.723-18.265 12.378-22.989 19.597 7.099 18.172 13.095 33.54 16.687 49.45 4.507 19.968 7.043 40.38 10.43 60.601z" />
<glyph unicode="&#xe9a9;" d="M403.335 562.741c24.727-24.138 41.415-47.159-5.644-64.78-5.867-2.197-2.98-23.718-7.323-35.071-5.408-14.137-14.114-27.012-24.375-40.957-1.742 29.862-0.505 60.249 5.618 93.699 8.895 11.758 12.904 20.453 16.914 29.148 4.061 5.771 8.122 11.542 14.811 17.96z" />
<glyph unicode="&#xe9aa;" d="M370.037 365.402c15.647 5.746 31.242 8.327 50.164 11.48 15.138-8.785 26.949-18.14 48.643-35.324-23.973 0-40.989 0-61.336-0.079-14.729 6.867-26.126 13.813-37.471 23.923z" />
<glyph unicode="&#xe9ab;" d="M538.612 571.522c-6.952-2.802-13.903-5.605-23.786-8.456-11.498 8.812-20.064 17.673-29.123 29.177 14.829 3.601 30.151 4.558 49.261 1.541 3.742-10.070 3.695-16.167 3.648-22.263z" />
<glyph unicode="&#xe9ac;" d="M386.032 543.526c-1.516-7.441-5.526-16.136-12.398-24.869 1.393 7.846 5.649 15.73 12.398 24.869z" />
<glyph unicode="&#xe9ad;" d="M541.088 571.816c-2.429 5.802-2.382 11.898-2.371 21.042 3.821 3.502 7.679 3.957 14.216 0.9 2.862-7.098 3.045-10.685 3.227-14.271-4.199-2.459-8.398-4.917-15.073-7.671z" />
<glyph unicode="&#xe9ae;" d="M559.376 579.634c-3.399 3.439-3.581 7.026-3.627 13.294 7.836 2.692 15.535 2.701 25.366 0.71-4.753-5.953-11.638-9.905-21.739-14.005z" />
<glyph unicode="&#xe9af;" d="M315.445 163.086c-3.969-5.962-10.49-10.903-19.748-15.807 3.907 5.634 10.552 11.232 19.748 15.807z" />
<glyph unicode="&#xe9b0;" d="M108.243 458.839c-1.293 2.68 0.121 4.419 3.563 6.502 0.56-1.84-0.401-4.435-3.563-6.502z" />
<glyph unicode="&#xe9b1;" d="M597.201 486.906c-2.331-23.203-4.867-43.615-9.374-63.583-3.591-15.91-9.588-31.278-20.14-48.507-22.321-3.747-39.019-5.873-55.717-7.999-20.841 9.609-41.682 19.218-65.112 29.126 0.364 27.783 3.318 55.268 8.384 88.601 17.361 13.049 32.609 20.249 47.857 27.449 3.972-0.531 7.943-1.063 14.857-0.869 28.025-6.594 53.107-13.915 79.245-24.217z" />
<glyph unicode="&#xe9b2;" d="M512.909 363.852c15.759 5.090 32.457 7.216 52.608 8.4 10.347-5.598 17.241-10.253 25.121-17.967-26.805-14.851-53.825-20.441-77.729 9.568z" />
<glyph unicode="&#xe9b3;" d="M502.843 515.030c-14.992-10.238-30.241-17.439-47.803-26.963-0.444 10.907-2.77 31.814 4.238 35.645 11.725 6.409 33.64 27.325 43.565-8.683z" />
<glyph unicode="&#xe9b4;" d="M556.038 544.561c11.448-1.197 20.246-2.748 29.045-4.3-0.616-3.629-1.231-7.259-1.847-10.888-11.056 2.897-22.123 5.758-33.128 8.837-0.391 0.109-0.66 2.667-0.122 3.567 0.655 1.096 2.227 1.644 6.052 2.783z" />
<glyph unicode="&#xe9b5;" d="M656 944c127.453 0 254.906 0 383.026 0 0-341.334 0-682.667 0-1024-80.632 0-160.29 0-249.157 3.956-13.204 14.582-17.199 25.208-14.625 36.066 87.374 1.827 123.169 54.779 124.632 123.877 4.315 203.699 3.191 407.574 0.248 611.323-0.736 50.966-21.616 97.386-90.962 105.195-34.372 1.004-61.926 1.005-89.599 5.963-6.256 11.886-12.391 18.814-21.731 29.366-16.9 20.634-30.596 37.644-43.757 61.342 0.998 20.096 1.461 33.504 1.924 46.913z" />
<glyph unicode="&#xe9b6;" d="M240-80c-74.345 0-148.69 0-223.517 0 0 339.54 0 679.081 0 1024 122.466 0 245.493 0 378.581-5.145 15.134-15.45 20.207-25.754 20.982-39.486-45.071-29.843-82.825-70.472-127.207-79.897-114.153-24.244-136.894-40.198-138.704-159.032-2.632-172.781-3.471-345.642-1.464-518.427 1.851-159.31 4.692-160.169 153.184-191.293-22.86-13.148-42.357-21.934-61.855-30.72z" />
<glyph unicode="&#xe9b7;" d="M672-80c-85.679 0-171.358 0-261.111 4.355-7.608 14.652-11.141 24.95-7.282 37.702 95.635 0.658 183.877-1.138 271.105-8.387-1.58-14.859-2.146-24.264-2.712-33.67z" />
<glyph unicode="&#xe9b8;" d="M420.343 902.797c-5.073 10.304-10.146 20.608-17.781 36.058 77.791 5.145 158.145 5.145 245.968 5.145 7.007-13.408 6.544-26.817-0.894-45.139-80.415-1.964-153.854 0.986-227.293 3.936z" />
<glyph unicode="&#xe9b9;" d="M679-80c-6.434 9.406-5.868 18.811 2.334 33.55 34.204 5.635 60.773 5.937 87.342 6.239 3.995-10.626 7.99-21.251 13.655-35.833-30.997-3.956-63.664-3.956-103.33-3.956z" />
<glyph unicode="&#xe9ba;" d="M396.214-40.398c3.533-10.298 7.067-20.595 7.193-35.248-51.897-4.355-100.386-4.355-156.141-4.355 12.232 8.786 31.729 17.572 60.257 32.666 20.715 4.469 32.401 2.63 45.779-1.554 5.906-0.769 10.119 0.806 17.292 4.742 10.513 2.824 18.067 3.286 25.62 3.748z" />
<glyph unicode="&#xe9bb;" d="M403.607-37.943c-14.947-2.916-22.5-3.379-37.023-4.883-9.638-1.934-12.307-2.826-14.976-3.717-11.685 1.839-23.371 3.678-40.724 3.572-157.522 24.815-160.363 25.674-162.214 184.984-2.007 172.785-1.168 345.645 1.464 518.427 1.81 118.833 24.551 134.788 138.704 159.032 44.381 9.426 82.136 50.054 127.207 79.897 77.737 0.478 151.176-2.472 231.055-7.195 20.136-18.784 33.831-35.794 47.605-59.28-0.892-14.774-1.863-23.072-7.734-31.908-8.18-0.779-11.459-1.020-20.722-1.301-9.971-0.166-13.957-0.293-21.536 3.509-48.157 63.895-135.316 80.397-204.293 42.046-51.074-28.396-49.521-68.076-25.52-117.629-11.195-11.090-21.352-17.461-36.271-21.051-27.73 64.472-74.922 53.901-128.446 43.126-17.665-14.662-29.363-30.207-43.221-52.976-2.424-205.412-4.013-403.616-1.365-601.764 0.354-26.466 22.163-52.645 35.161-83.622 9.006-2.717 16.888-0.769 30.231-1.149 191.835-2.328 378.207-2.328 576.622-2.328 0 243.334 1.395 468.124-2.162 692.836-0.355 22.424-30.825 44.371-43.335 69.317 7.277 11.656 10.572 20.536 13.867 29.415 62.527-6.805 83.407-53.225 84.143-104.192 2.943-203.749 4.067-407.624-0.248-611.323-1.464-69.097-37.259-122.050-124.632-123.877-33.138-0.535-59.707-0.837-92.897-1.019-94.863 1.916-183.105 3.712-278.74 3.053z" />
<glyph unicode="&#xe9bc;" d="M672.234 799.725c3.279 0.241 6.557 0.482 18.67 0.496 15.483 0.249 22.132 0.725 28.78 1.202 27.553-0.001 55.107-0.002 89.479-1.005 3.524-9.882 0.229-18.762-13.36-30.246-41.501-8.402-72.707-14.199-109.249-17.598-15.863 7.458-26.391 12.516-35.789 21.248 1.129 3.674 5.222 10.181 8.644 11.986 7.621 5.016 10.755 9.054 12.825 13.918z" />
<glyph unicode="&#xe9bd;" d="M719.563 806.379c-6.528-5.434-13.177-5.91-23.758-5.621-2.962 9.063-1.992 17.361 2.105 28.511 9.262-4.076 15.397-11.004 21.653-22.89z" />
<glyph unicode="&#xe9be;" d="M353.301-48.888c0.976 3.236 3.645 4.128 10.323 3.7-0.204-2.894-4.417-4.469-10.323-3.7z" />
<glyph unicode="&#xe9bf;" d="M691.89 750.173c31.206 5.798 62.412 11.595 99.931 17.22 22.805-22.341 53.275-44.288 53.63-66.712 3.556-224.712 2.162-449.502 2.162-692.836-198.415 0-384.787 0-583.077 3.43-16.246 3.857-20.574 4.285-24.902 4.712-11.873 26.312-33.682 52.491-34.036 78.958-2.648 198.148-1.059 396.353 6.968 601.926 19.705 22.235 31.645 37.083 43.586 51.932 47.556 11.658 94.748 22.228 124.103-47.441 32.148-20.961 57.908-33.942 84.601-52.693 11.264-39.385 21.597-73.002 31.276-112.266-14.286-17.034-26.831-30.152-41.734-39.516-80.407-50.522-76.232-141.699 9.813-200.887 21.721-28.512 43.129-51.194 61.090-79.492-47.462-15.877-91.477-26.138-135.492-36.399 33.436-17.228 70.873-53.536 99.438-47.544 52.588 11.030 108.291 38.733 145.426 76.478 14.956 15.202-15.537 75.119-25.886 120.391-27.352 16.351-54.164 26.996-82.14 42.853-16.223 28.262-31.282 51.312-40.644 77.798 47.49 5.034 89.457 4.948 130.972 9.242 12.692 1.313 24.14 14.654 36.158 22.487-9.288 10.216-22.293 30.837-27.292 29.051-54.303-19.4-66.942 33.169-97.675 60.843-1.499 31.512-2.98 55.751 1.405 81.387 79.358-1.603 136.067 22.838 162.321 97.078z" />
<glyph unicode="&#xe9c0;" d="M655.987 784.002c0 0-4.093-6.507-9.394-13.802-57.789-76.6-121.398-85.23-230.654-37.869-25.039 44.834-26.592 84.514 24.482 112.91 68.977 38.35 156.136 21.848 205.869-46.036 6.678-10.347 8.188-12.775 9.698-15.203z" />
<glyph unicode="&#xe9c1;" d="M414.9 727.611c110.294-42.641 173.903-34.011 230.563 38.915 14.7-1.437 25.227-6.496 41.091-13.953-20.918-76.64-77.627-101.080-161.791-98.054-27.395-0.010-44.118-0.045-60.84-0.081-25.761 12.982-51.521 25.963-78.906 44.143 8.532 11.569 18.689 17.94 29.884 29.030z" />
<glyph unicode="&#xe9c2;" d="M250.183 749.685c-5.973-15.731-17.913-30.58-35.457-45.59 6.094 15.383 17.792 30.928 35.457 45.59z" />
<glyph unicode="&#xe9c3;" d="M240.758 11.323c3.203 4.238 7.531 3.811 18.314 2.281-1.426-3.050-9.307-4.998-18.314-2.281z" />
<glyph unicode="&#xe9c4;" d="M659.409 785.806c-4.932 0.623-6.441 3.051-9.527 9.469 2.41 4.117 6.397 4.243 16.368 4.41 3.915-4.825 0.78-8.862-6.841-13.878z" />
<glyph unicode="&#xe9c5;" d="M528.181 564.436c30.715-20.401 43.354-72.971 97.657-53.571 5 1.786 18.005-18.835 27.292-29.051-12.018-7.833-23.466-21.174-36.158-22.487-41.514-4.294-83.481-4.208-136.991-10.231-48.286-72.61-41.194-81.853 47.827-82.021 26.812-10.646 53.624-21.291 80.158-42.899-5.94-19.51-11.603-28.059-21.963-36.289-10.972 0.526-17.246 0.735-24.996 5.208-6.574 6.046-11.672 7.827-23.394 11.16-28.988 0.226-51.353-1.1-73.718-2.426-85.731 53.359-89.907 144.536-9.5 195.058 14.903 9.364 27.448 22.482 45.739 42.309 12.454 14.041 20.25 19.64 28.046 25.239z" />
<glyph unicode="&#xe9c6;" d="M590.701 287.569c5.663 8.548 11.326 17.096 17.806 30.902 10.626-34.309 41.12-94.226 26.163-109.429-37.134-37.745-92.838-65.447-145.426-76.478-28.565-5.992-66.003 30.316-99.438 47.544 44.015 10.261 88.030 20.522 141.772 37.22 54.827 5.537 71.895 26.338 59.123 70.24z" />
<glyph unicode="&#xe9c7;" d="M586.004 287.887c17.47-44.22 0.402-65.021-50.977-64.942-27.688 21.861-49.096 44.543-70.817 73.055 22.051 7.155 44.416 8.481 75.673 5.044 12.84-8.39 17.41-10.874 22.601-12.214 6.274-0.209 12.549-0.417 23.521-0.943z" />
<glyph unicode="&#xe9c8;" d="M528.163 571.708c-7.779-12.872-15.575-18.471-27.375-26.864-14.337 30.823-24.669 64.439-35.933 103.825 15.79 5.804 32.513 5.839 54.041 4.452 6.287-25.662 7.769-49.901 9.268-81.412z" />
<glyph unicode="&#xe9c9;" d="M526.645 372.287c-87.857-5.043-94.949 4.199-52.361 73.374 21.078-22.062 36.138-45.112 52.361-73.374z" />
<glyph unicode="&#xe9ca;" d="M561.007 293.095c-3.716-2.925-8.286-0.441-14.502 6.397 2.83 1.43 7.928-0.351 14.502-6.397z" />
<glyph unicode="&#xe9cb;" d="M10.24 591.36c0 122.88 0 240.64 0 358.4 341.333 0 682.666 0 1024 0 0-341.333 0-682.666 0-1024-341.333 0-682.666 0-1024 0 0 220.16 0 440.32 0 665.6zM167.754 866.032c-5.682-9.027-11.364-18.053-23.405-33.308-0.59-246.461-1.655-492.923-0.958-739.38 0.063-22.159 11.512-44.287 19.782-73.137 17.408-14.010 34.816-28.019 55.784-46.723 5.631-1.455 11.262-2.911 19.706-7.962 5.8 0.285 11.601 0.57 26.802-1.147 126.889-1.008 253.783-3.071 380.666-2.527 53.847 0.231 107.67 5.928 167.816 7.829 6.563 4.705 13.126 9.409 25.654 16.136 10.754 9.363 21.509 18.726 38.804 32.682 7.231 24.161 20.471 48.263 20.714 72.494 1.532 153.019 0.182 306.067 2.214 467.441-0.168 14.371-0.336 28.741 0.869 50.543-30.407 29.047-60.814 58.095-92.815 85.265 0 0 1.906 1.559-1.176 8.322-23.434 18.177-46.867 36.354-73.395 60.845-30.279 33.467-60.557 66.934-95.075 106.193-24.763 14.392-49.525 28.783-82.463 46.085-100.613-1.841-201.226-3.683-309.444-4.111-24.662-14.403-49.324-28.805-80.080-45.542z" />
<glyph unicode="&#xe9cc;" d="M871.864 13.902c-10.754-9.363-21.509-18.726-38.486-28.476-12.73-5.070-19.236-9.754-25.743-14.437-53.834-3.212-107.657-8.909-161.504-9.14-126.883-0.544-253.777 1.519-386.67 5.743-11.874 2.652-17.743 2.089-23.612 1.526-5.631 1.455-11.262 2.911-18.753 9.851-1.962 9.668-2.064 13.852 0.12 18.27 4.214 3.716 6.141 7.198 8.066 13.845-0.010 7.388-0.017 11.609 4.322 16.78 11.645-2.43 18.96-8.786 26.243-8.75 153.714 0.766 307.424 2.252 465.396 2.487 41.342 5.203 78.422 11.516 119.322 17.227 12.98-8.71 22.14-16.818 31.3-24.926z" />
<glyph unicode="&#xe9cd;" d="M875.134 16.198c-12.431 5.812-21.591 13.92-33.734 26.607-2.649 15.234-2.316 25.89-0.563 41.162 2.116 117.523 2.814 230.429 7.491 343.334 38.777 0.375 29.080 26.692 32.517 46.797 4.378 25.613 11.894 50.689 18.058 75.997 0.398-153.038 1.748-306.086 0.216-459.106-0.243-24.231-13.483-48.333-23.984-74.791z" />
<glyph unicode="&#xe9ce;" d="M255.438 910.16c100.613 1.841 201.226 3.683 305.357 0.218-3.685-21.118-10.887-36.929-22.574-53.144-25.414-0.808-46.344-1.211-71.544-0.675-26.761-1.079-49.251-3.097-71.692-5.638 0.049-0.522-0.982-0.712-4.234 2.352-6.105 2.209-8.958 1.353-11.603 0.199 0.208-0.299-0.403 0.183-4.002 1.942-28.426 2.385-53.253 3.011-78.788 7.010-14.112 18.16-27.516 32.949-40.921 47.737z" />
<glyph unicode="&#xe9cf;" d="M161.064 26.914c-6.161 22.142-17.611 44.27-17.674 66.429-0.696 246.457 0.369 492.919 7.32 741.74 8.526 2.103 10.69 1.845 12.959-1.741 0.43-7.758 0.757-12.187 0.805-21.414-0.246-117.607-0.214-230.415-0.318-348.043-0.118-110.79-0.101-216.76-0.135-327.262-1.020-39.591-1.989-74.65-2.957-109.708z" />
<glyph unicode="&#xe9d0;" d="M162.119 23.56c-0.086 38.412 0.883 73.471 4.737 116.182 4.297 114.711 5.708 221.77 7.138 333.597 0.065 52.751 0.111 100.735 3.59 148.726 8.010 0.010 12.588 0.012 18.311-4.392 2.422-25.477 3.699-46.549 3.65-71.827-0.269-21.686 0.787-39.166 0.353-60.037-0.492-8.121 0.507-12.85 0.112-20.792-0.512-7.701 0.369-12.191-0.274-20.816-0.649-18.668 0.226-33.201-0.211-50.955-0.533-7.715 0.246-12.209-0.172-19.368-0.431-4.458 0.334-6.249-0.123-11.288-0.442-7.735 0.34-12.222-0.18-20.128-0.466-8.145 0.369-12.871 0-22.238 1.020-79.967 3.243-155.295 4.937-234.488 6.738-22.184 14.005-40.502 21.273-58.82 0.007-4.222 0.013-8.443-2.195-17.137-4.188-7.239-6.16-10.007-8.133-12.774 0.102-4.184 0.204-8.367 0.386-15.689-17.327 10.872-34.735 24.882-53.198 42.245z" />
<glyph unicode="&#xe9d1;" d="M810.981 696.115c30.407-29.047 60.814-58.095 86.958-91.244-22.148-10.625-40.032-17.147-62.112-23.391-15.344 0.793-26.494 1.306-37.284 5.194 0.274 17.419 0.189 31.465-1.421 48.51-11.064 7.849-20.603 12.699-31.925 20.443-20.461 24.859-39.139 46.823-54.535 69.51 11.27 11.133 19.259 21.544 27.247 31.955 23.434-18.177 46.867-36.354 68.873-58.72-5.004-8.359-8.58-12.528-12.156-16.696 2.351-1.504 4.703-3.008 7.054-4.512 3.1 6.318 6.2 12.635 9.3 18.953z" />
<glyph unicode="&#xe9d2;" d="M736.362 760.249c-6.441-13.568-14.43-23.979-27.684-32.096-35.213 17.878-65.159 33.462-97.040 51.988-7.155 21.111-12.376 39.281-15.428 60.908 17.369 9.891 32.569 16.324 47.769 22.758 30.279-33.467 60.557-66.934 92.383-103.558z" />
<glyph unicode="&#xe9d3;" d="M840.022 581.201c17.885 6.523 35.769 13.045 57.23 19.954 3.744-13.984 3.912-28.355 2.866-46.893-7.378-29.475-14.894-54.552-19.273-80.165-3.437-20.105 6.26-46.421-33.775-42.237-6.11 39.153-6.982 73.744-6.811 111.689 0.38 7.921-0.284 12.487 0.039 20.403 0.565 7.982 0.145 12.615-0.276 17.247z" />
<glyph unicode="&#xe9d4;" d="M164.752 816.726c-0.326 4.429-0.653 8.858 1.468 18.999 4.174 14.688 5.9 23.664 7.627 32.64 24.662 14.403 49.324 28.805 77.788 42.501 17.206-15.495 30.61-30.284 42.209-49.729-3.518-5.437-5.231-6.218-10.582-6.282-14.828-2.28-26.017-5.275-40.432-8.251-8.066-2.972-12.905-5.965-20.463-9.78-8.832-7.683-14.947-14.543-24.31-22.139-6.803-3.253-10.356-5.77-16.427-7.159-7.304 3.818-12.091 6.509-16.878 9.199z" />
<glyph unicode="&#xe9d5;" d="M641.86 866.703c-13.080-9.33-28.281-15.763-49.21-25.028-18.545 3.173-31.361 9.176-45.759 14.343-1.582-0.837-4.185 1.619-4.185 1.619 7.202 15.811 14.405 31.622 22.176 51.285 25.332-10.54 50.095-24.932 76.978-42.22z" />
<glyph unicode="&#xe9d6;" d="M170.801 867.199c1.32-7.809-0.406-16.785-4.684-28.144-4.716-2.126-6.88-1.869-12.226-0.857 2.5 9.781 8.182 18.808 16.91 29.001z" />
<glyph unicode="&#xe9d7;" d="M810.791-29.667c3.351 5.339 9.857 10.023 19.604 14.082-3.323-5.329-9.885-10.033-19.604-14.082z" />
<glyph unicode="&#xe9d8;" d="M237.256-32.68c4.462 2.361 10.331 2.924 17.504 1.273-4.496-2.5-10.297-2.785-17.504-1.273z" />
<glyph unicode="&#xe9d9;" d="M204.515 89.601c-2.223 75.328-4.447 150.655-2.568 230.666 10.5 8.152 16.898 11.621 27.238 15.078 18.499-6.593 33.014-13.265 47.619-19.734 24.136-10.691 48.33-21.25 71.862-35.711-0.86-11.405-1.081-18.964-5.203-27.042-8.803-20.581-13.706-40.642-22.029-61.974-5.64-17.814-8.716-34.339-9.069-50.923-0.048-2.246 19.215-7.998 19.964-6.682 6.58 11.568 10.988 24.372 19.342 37.564 14.76 6.838 26.217 12.921 39.418 16.287 28.605-43.551 47.331-8.086 72.056 2.041 28.702-3.526 53.856-4.691 79.918-9.642 30.394-3.848 59.879-3.91 93.613-2.672 21.921 2.81 39.593 4.32 61.071 6.11 8.403 8.171 12.998 16.063 15.814 26.324-1.265 6.136-0.75 9.902 3.362 13.992 14.213 3.636 24.829 6.946 35.444 10.258-5.426 6.703-10.852 13.407-16.278 20.11-11.666-3.126-23.331-6.251-36.338-8.771-1.341 0.606-2.53 3.298-0.437 6.738 0.397 16.556-1.298 29.672-3.713 46.216-13.829 1.717-26.938 0.006-41.957-1.889-1.908-0.185-5.711-0.683-8.687 0.128-4.939 1.424-6.902 2.037-10.133 4.781-4.284 3.493-7.216 5.016-10.068 10.529-6.867 17.367-13.732 30.904-22.184 47.509-5.999 8.194-11.16 12.854-14.683 18.531-10.931 17.617-21.24 35.619-31.79 53.472 17.879 2.804 35.684 7.305 53.651 8.093 52.712 2.312 98.351 31.614 110.825 69.959 21.743-10.402 39.707-20.311 57.306-33.599-6.951-14.782-13.538-26.185-24.308-37.608-47.653 2.824-46.351-26.463-47.431-57.11-1.466-41.586 27.018-34.387 55.454-35.031 11.52 0 19.2 0 28.406-2.903 10.768-7.802 20.009-12.701 27.369-21.060-6.962-12.067-17.143-21.196-16.324-29.199 7.086-69.184 16.017-138.183 25.168-207.134 0.335-2.524 8.619-3.993 13.198-5.953-0.334-10.656-0.668-21.312-1.838-35.945-37.917-10.29-74.997-16.603-117.287-18.239-12.947 10.653-20.634 21.739-28.429 21.816-77.587 0.762-155.417 3.211-232.733-1.755-89.232-5.731-180.605-33.619-254.616 44.373z" />
<glyph unicode="&#xe9da;" d="M203.986 85.735c74.541-74.126 165.913-46.238 255.146-40.507 77.316 4.966 155.146 2.517 232.733 1.755 7.795-0.076 15.482-11.163 24.167-20.705-152.762-4.912-306.472-6.398-460.186-7.164-7.283-0.036-14.598 6.32-26.243 8.75-11.612 17.369-18.88 35.687-25.617 57.871z" />
<glyph unicode="&#xe9db;" d="M217.216-2.761c-0.313 2.532 1.66 5.3 5.851 9.373 0.291-2.175-1.637-5.657-5.851-9.373z" />
<glyph unicode="&#xe9dc;" d="M840.837 83.967c-5.998-2.656-14.282-1.187-14.617 1.337-9.152 68.952-18.082 137.951-25.168 207.134-0.82 8.003 9.362 17.132 18.094 31.102-0.938 21.184-5.527 37.005-10.122 56.224 0.001 7.927 0.007 12.456 2.619 19.449 4.385 23.826 4.469 45.505 8.381 66.469 4.693 25.156 12.649 49.703 19.192 74.513 0.872-34.591 1.745-69.183 3.875-108.334 0.56-117.466-0.137-230.372-2.253-347.895z" />
<glyph unicode="&#xe9dd;" d="M286.901 854.14c1.713 0.78 3.426 1.561 7.652 3.626 27.341 0.659 52.168 0.032 81.495-4.204 5.575-4.333 6.65-5.057 7.725-5.781-1.611 1.996-3.222 3.993-4.832 5.989 2.853 0.855 5.706 1.711 13.161-2.063 6.294-4.462 7.986-4.296 9.678-4.13-2.281 1.288-4.562 2.576-6.843 3.865 22.491 2.018 44.981 4.036 71.961 1.154 22.589-15.923 40.69-26.946 65.599-42.116 0-10.938-0.026-29.157 0.004-47.377 0.149-88.267 0.132-88.121-85.733-101.394-5.999-0.927-11.304-6.349-21.145-10.159-18.331-0.179-32.449 0.119-48.297 3.684-22.668 3.261-46.574 9.78-63.922 1.886-35.75-16.268-53.796-7.274-65.911 22.049 21.609 15.012 38.288 26.6 54.967 38.187-23.048 24.695-46.097 49.391-72.81 78.012 2.891 5.61 9.543 18.518 19.974 31.472 14.946 9.129 26.112 18.214 37.278 27.299zM445.309 841.628c0 0-0.455 0.862 0 0zM352.623 842.411c0 0 0.853 0.466 0 0z" />
<glyph unicode="&#xe9de;" d="M429.836 652.028c5.628 3.332 10.932 8.754 16.932 9.681 85.864 13.273 85.881 13.127 85.733 101.394-0.031 18.22-0.004 36.439-0.004 47.377-24.909 15.169-43.010 26.192-61.329 41.177 20.711 4.365 41.641 4.768 67.055 5.576 4.484 0.404 7.088-2.051 10.908-5.506 4.467-32.292 3.321-61.309 6.19-89.924 4.109-40.981 11.15-81.669 17.68-125.819 15.792-16.451 30.844-29.564 45.392-44.012-0.503-1.334-0.888-4.16-2.954-7.634-11.953-6.779-21.839-10.084-33.346-10.314-18.297 7.516-34.833 14.777-51.691 15.624-17.611 0.885-35.533-4.402-54.099-3.576-15.778 21.663-30.776 39.91-45.78 60.122-0.005 1.964-0.687 5.834-0.687 5.834z" />
<glyph unicode="&#xe9df;" d="M379.149 853.471c1.403-1.697 3.014-3.693 4.624-5.69-1.075 0.724-2.15 1.448-4.126 4.022-0.902 1.851-0.29 1.368-0.498 1.667z" />
<glyph unicode="&#xe9e0;" d="M164.475 811.928c5.065 2.108 9.852-0.583 20.792-4.41 8.575-1.221 10.996-1.305 14.172-5.737-0.98-21.827-2.715-39.306-8.432-57.802-8.273-41.318-12.564-81.62-16.855-121.921-0.046-47.984-0.093-95.968-2.578-148.717-2.439-4.766-7.28-4.635-7.28-4.635-0.032 112.808-0.064 225.616 0.182 343.223z" />
<glyph unicode="&#xe9e1;" d="M164.157 463.885c0.136 4.82 4.977 4.69 7.398 4.688 1.009-107.060-0.402-214.119-4.647-324.298-2.852 102.85-2.869 208.82-2.751 319.61z" />
<glyph unicode="&#xe9e2;" d="M349.305 283.746c-24.17 10.615-48.364 21.175-72.5 31.865-14.605 6.469-29.121 13.142-49.273 22.064-12.791 4.296-19.987 6.25-27.182 8.204-0.782 4.488-1.563 8.975 0.778 16.938 1.889 6.892 0.655 10.309-0.579 13.726-0.779 4.493-1.558 8.987 2.411 17.039 32.414 24.38 35.95 42.161-1.701 54.754-0.881 4.49-1.762 8.979 0.979 17.39 2.132 10.439 0.641 16.956-0.85 23.474-1.057 17.48-2.113 34.96 2.114 56.702 44.4 6.201 95.469-33.585 117.412 35.461 2.141-0.309 6.466-0.346 7.355-4.284 45.602-29.453 92.237-31.674 143.442-17.551 29.455-34.989 20.469-56.406-17.706-70.339-39.207-14.31-43.004-38.673-15.222-70.529 13.328-15.283 21.656-34.927 28.337-52.6-18.481-8.359-33.049-16.714-50.729-26.73-7.727-2.483-12.342-3.304-18.979-1.768-27.817-1.785-50.324-8.643-39.978-45.502-1.826-5.987-4.382-7.933-8.128-8.314z" />
<glyph unicode="&#xe9e3;" d="M318.773 581.672c-19.803-69.356-70.872-29.569-113.945-31.565-5.235 21.015-6.512 42.087-7.769 72.16-0.677 46.91-1.374 84.819-2.070 122.728 1.735 17.479 3.47 34.958 5.858 58.896 0.653 6.459 0.461 11.531 0.461 11.531 6.114 6.86 12.228 13.72 22.811 18.923 10.098-3.494 15.728-5.33 21.448-7.261 0.090-0.094 0.278-0.288 0.278-0.288-6.652-12.909-13.304-25.817-16.194-31.427 26.713-28.622 49.762-53.317 72.81-78.012-16.679-11.587-33.358-23.175-54.967-38.187 12.115-29.322 30.161-38.317 65.911-22.049 17.348 7.894 41.254 1.375 61.152-4.257-40.294-9.946-56.288-33.68-55.782-71.191z" />
<glyph unicode="&#xe9e4;" d="M191.006 743.978c4.679-36.891 5.375-74.8 4.907-117.304-5.742-4.597-10.32-4.599-18.33-4.609 0.859 40.294 5.15 80.595 13.423 121.913z" />
<glyph unicode="&#xe9e5;" d="M199.735 444.2c39.175-8.457 35.639-26.239 4.537-47.397-4.311 14.196-5.186 28.729-4.537 47.397z" />
<glyph unicode="&#xe9e6;" d="M199.049 342.461c8.497 1.464 15.692-0.49 24.541-4.774-4.745-5.799-11.142-9.267-20.439-12.78-3.733 4.683-4.568 9.409-4.102 17.554z" />
<glyph unicode="&#xe9e7;" d="M199.897 485.808c2.982-3.126 4.473-9.644 3.735-16.871-3.228 4.020-4.227 8.75-3.735 16.871z" />
<glyph unicode="&#xe9e8;" d="M199.352 373.877c2.431-0.751 3.665-4.167 3-7.812-2.665 1.563-3.431 3.355-3 7.812z" />
<glyph unicode="&#xe9e9;" d="M613.572 777.2c29.947-15.584 59.893-31.169 91.824-49.769 20.662-24.981 39.34-46.945 58.769-73.278 0.75-4.368 1.365-7.914-2.913-8.658-24.542-1.946-44.806-3.148-69.24-3.763-18.175 1.205-32.178 1.824-47.548 5.465-13.701 10.298-26.036 17.573-38.626 24.53-0.255-0.318 0.533-0.108 3.901 1.553 3.338 11.447 3.308 21.232 3.835 35.534 0.371 25.806 0.185 47.096-0.001 68.386z" />
<glyph unicode="&#xe9ea;" d="M696.182 641.144c20.264 1.202 40.527 2.404 67.328 1.284 16.070-4.963 25.603-7.603 35.136-10.244 0.085-14.045 0.17-28.091 0.311-46.768 0.056-4.632 0.553-7.235-3.334-6.355-11.789 1.66-19.691 2.44-27.82 7.218-23.969 11.181-47.711 18.364-71.444 29.212-0.053 10.995-0.115 18.324-0.177 25.654z" />
<glyph unicode="&#xe9eb;" d="M835.827 581.48c4.615-4.912 5.036-9.545 0.862-17.527-15.456 2.51-26.317 8.368-37.178 14.227 0 0-0.498 2.603-0.912 3.861 10.735 0.745 21.885 0.231 37.229-0.562z" />
<glyph unicode="&#xe9ec;" d="M797.122 635.184c-8.008-0.359-17.541 2.282-29.333 7.989-2.259 3.066-2.874 6.612-1.841 8.086 10.571-3.376 20.111-8.225 31.174-16.074z" />
<glyph unicode="&#xe9ed;" d="M810.184 695.177c-2.302-5.379-5.402-11.696-8.502-18.014-2.351 1.504-4.703 3.008-7.054 4.512 3.576 4.169 7.152 8.338 13.697 13.314 2.969 0.808 1.063-0.751 1.86 0.188z" />
<glyph unicode="&#xe9ee;" d="M611.638 780.141c2.12-24.231 2.306-45.521-1.105-71.995-3.785-15.632-3.974-26.080-4.162-36.527 0 0-0.789-0.21-4.033 0.709-39.808 11.456-24.965-18.668-30.079-33.006-5.789 40.813-12.831 81.5-16.94 122.482-2.869 28.615-1.722 57.632-4.608 90.76 10.577-1.713 23.393-7.716 39.77-14.346 8.782-18.796 14.002-36.966 21.157-58.077z" />
<glyph unicode="&#xe9ef;" d="M795.623 579.060c14.748-6.738 25.609-12.597 40.079-18.456 4.273-4.567 4.937-9.133 4.557-17.054-7.587-28.165-15.543-52.712-20.236-77.867-3.911-20.964-3.996-42.643-12.068-65.589-9.18 14.362-11.012 30.599-15.304 46.157-3.114 11.291-9.484 21.683-14.402 32.476-17.964 9.91-35.928 19.819-61.589 29.691-64.924-18.714-110.503 14.762-175.631 29.571 21.969 16.964 32.326 24.962 42.683 32.959 9.887 3.305 19.773 6.61 35.921 13.169 22.843 1.728 39.424 0.202 60.53-2.374 32.305-0.521 60.086 0.008 87.867 0.537 7.902-0.78 15.803-1.56 27.592-3.22z" />
<glyph unicode="&#xe9f0;" d="M283.262 854.855c-7.528-9.801-18.694-18.885-33.64-28.015-3.779-0.045-3.967 0.149-3.912 3.472 0.152 7.64 0.249 11.956 0.346 16.272 11.189 2.995 22.378 5.991 37.206 8.271z" />
<glyph unicode="&#xe9f1;" d="M242.83 846.604c3.129-4.336 3.033-8.652 2.79-16.198-5.776-1.392-11.405 0.444-18.785 4.761 3.090 5.472 7.929 8.464 15.995 11.437z" />
<glyph unicode="&#xe9f2;" d="M198.057 814.686c3.25 0.736 3.442-4.336 2.035-6.446-3.829-2.027-6.25-1.943-12.308-1.85-0.083 2.526 3.47 5.043 10.273 8.296z" />
<glyph unicode="&#xe9f3;" d="M582.093 574.024c-8.737-11.072-19.094-19.070-41.063-36.034 65.128-14.809 110.707-48.285 171.852-29.079-4.776-38.308-50.415-67.611-103.127-69.922-17.968-0.788-35.772-5.289-53.651-8.093 10.55-17.853 20.859-35.856 31.79-53.472 3.523-5.677 8.684-10.337 12.143-21.175-34.35-16.861-67.747-28.009-103.945-38.161-6.971 5.157-11.142 9.319-15.368 17.12-3.267 12.712-6.479 21.785-9.691 30.858-10.593 17.669-18.921 37.312-32.249 52.595-27.781 31.855-23.985 56.219 15.222 70.529 38.175 13.933 47.161 35.35 18.115 73.255-0.106 10.082 2.428 15.147 4.963 20.213 17.786 2.589 35.708 7.876 53.319 6.991 16.858-0.847 33.394-8.107 51.691-15.624z" />
<glyph unicode="&#xe9f4;" d="M636.094 298.724c1.963-0.613 3.926-1.227 10.521-5.397 19.957-17.421 35.282-31.285 50.607-45.148 0 0 1.189-2.692 3.534-5.546 5.753-8.46 9.162-14.067 12.571-19.674-0.515-3.765-1.030-7.531-2.564-15.846-6.287-11.175-11.555-17.8-16.823-24.426-17.671-1.51-35.343-3.020-57.522-2.319-13.757 8.772-23.006 15.332-32.714 25.517-7.018 21.623-13.577 39.622-15.818 57.678 30.236-2.355 49.977 2.956 48.208 35.161z" />
<glyph unicode="&#xe9f5;" d="M480.778 331.567c4.171-4.161 8.342-8.323 16.583-16.278 7.047-9.021 10.024-14.247 9.41-20.704-14.206-14.542-24.821-27.855-38.7-41.163-7.615-0.001-11.967-0.007-17.286 2.392-1.546 4.033-2.125 5.661-2.023 10.737-12.355 1.232-25.392-0.985-40.905-4.732-4.020-2.71-5.564-3.888-10.254-3.726-18.844-0.678-34.541-2.697-50.239-4.716 0.221 7.559 0.443 15.119 1.302 26.523 4.385 4.227 6.941 6.173 11.785 13.44 15.313 16.46 27.147 29.163 38.981 41.866 4.615 0.821 9.231 1.642 21.359 3.414 25.004-1.717 42.495-4.384 59.986-7.052z" />
<glyph unicode="&#xe9f6;" d="M451.753 253.409c4.352 0.006 8.703 0.012 16.306-4.057 5.193-17.875 7.136-31.676 9.078-45.476 4.683-1.921 9.365-3.843 14.048-5.764 17.279 21.063 34.558 42.126 53.508 65.729 9.307 9.051 16.944 15.562 26.014 19.003 5.243-8.493 9.053-13.916 12.862-19.339 6.559-17.999 13.118-35.998 16.833-58.643-12.528 1.358-22.213 7.361-35.14 15.374-7.779-12.43-15.442-24.675-23.106-36.921-25.153 1.165-50.307 2.33-79.264 9.828-6.249 24.31-8.693 42.288-11.138 60.265z" />
<glyph unicode="&#xe9f7;" d="M569.273 285.915c-7.637-6.511-15.273-13.021-27.906-22.078-13.666 8.962-22.336 20.47-31.006 31.978-2.977 5.227-5.954 10.454-10.201 18.478 32.128 13.946 65.525 25.094 101.463 38.886 9.404-10.893 16.268-24.43 19.364-42.395-14.956-8.372-26.143-12.316-40.371-16.128-5.55-2.918-8.059-5.968-10.788-9.022-0.219-0.003-0.556 0.28-0.556 0.28z" />
<glyph unicode="&#xe9f8;" d="M450.786 255.814c3.412-20.382 5.857-38.36 8.557-60.31-20.921-16.46-39.647-51.925-68.172-5.114 2.084 26.105 5.833 46.233 9.581 66.361 1.543 1.179 3.086 2.357 10.885 5.062 16.319 1.447 26.383 1.368 36.446 1.289 0.579-1.628 1.158-3.256 2.704-7.289z" />
<glyph unicode="&#xe9f9;" d="M757.76 345.6c-24.596 0.644-53.080-6.555-51.614 35.031 1.080 30.647-0.222 59.934 47.431 52.502 4.183-32.236 4.183-59.884 4.183-87.533z" />
<glyph unicode="&#xe9fa;" d="M397.603 258.093c-0.601-21.469-4.349-41.597-8.177-64.985-11.537-9.343-22.994-15.426-40.543-20.555-12.070 7.17-18.049 13.386-24.027 19.601 4.902 20.062 9.804 40.123 18.608 60.704 19.598 2.538 35.296 4.557 54.14 5.235z" />
<glyph unicode="&#xe9fb;" d="M761.6 345.6c-3.84 27.648-3.84 55.296-3.84 87.552 6.587 16.011 13.174 27.415 20.125 42.197 5.282-7.415 11.651-17.807 14.766-29.098 4.292-15.558 6.124-31.795 12.698-48.621 3.682-5.409 3.676-9.938 0.766-19.395-7.814-14.163-12.725-23.399-17.636-32.635-7.68 0-15.36 0-26.88 0z" />
<glyph unicode="&#xe9fc;" d="M543.064 179.53c6.755 16.032 14.419 28.278 22.197 40.707 12.927-8.013 22.612-14.017 35.6-18.998 12.552-5.539 21.801-12.1 31.308-22.171-29.227-3.449-58.712-3.386-89.105 0.462z" />
<glyph unicode="&#xe9fd;" d="M583.657 294.524c11.188 3.944 22.375 7.888 37.334 12.431 6.62-1.085 9.552-2.608 13.836-6.101 3.037-34.335-16.704-39.646-46.94-37.291-8.128 5.366-11.937 10.789-17.18 19.282-1.433 3.069-1.097 2.786 1.841 3.532 5.661 3.213 8.385 5.68 11.109 8.147z" />
<glyph unicode="&#xe9fe;" d="M321.435 190.884c9.399-4.946 15.378-11.161 24.146-19.086-2.263-14.147-6.671-26.951-13.251-38.519-0.749-1.316-20.012 4.436-19.964 6.682 0.353 16.584 3.429 33.109 9.069 50.923z" />
<glyph unicode="&#xe9ff;" d="M699.316 251.618c-17.418 10.424-32.743 24.287-49.724 40.897-1.656 2.746 2.146 3.244 8.093 2.848 16.843-0.583 27.74-0.77 38.637-0.957 1.696-13.116 3.391-26.232 2.994-42.788z" />
<glyph unicode="&#xea00;" d="M790.006 342.697c3.384 12.139 8.295 21.375 16.114 32.14 7.498-14.291 12.087-30.113 14.906-47.837-11.012 2.996-20.253 7.895-31.021 15.697z" />
<glyph unicode="&#xea01;" d="M716.925 223.283c-7.006 5.282-10.415 10.889-14.827 18.743 10.662 5.373 22.328 8.499 33.993 11.625 5.426-6.703 10.852-13.407 16.278-20.11-10.616-3.311-21.231-6.622-35.444-10.258z" />
<glyph unicode="&#xea02;" d="M695.603 297.834c-10.178-3.241-21.075-3.054-36.010-2.285 9.072 2.292 22.182 4.003 36.010 2.285z" />
<glyph unicode="&#xea03;" d="M697.748 182.968c1.461 6.345 6.729 12.97 14.796 21.775-1.797-5.712-6.393-13.603-14.796-21.775z" />
<glyph unicode="&#xea04;" d="M320.914 581.363c-2.646 37.821 13.347 61.554 55.372 68.233 16.888 2.073 31.005 1.775 49.336 1.954 4.213 0.477 4.895-3.392 4.185-9.020-27.020-13.882-53.329-22.136-88.459-33.157-1.163-2.361-7.566-15.358-13.969-28.356 0 0-4.326 0.037-6.466 0.346z" />
<glyph unicode="&#xea05;" d="M445.081 842.059c-0.228 0.431 0.228-0.431 0 0z" />
<glyph unicode="&#xea06;" d="M394.985 850.92c2.232-0.766 4.513-2.054 6.794-3.342-1.692-0.166-3.384-0.333-6.426 1.066-1.35 1.565-0.318 1.754-0.368 2.277z" />
<glyph unicode="&#xea07;" d="M353.050 842.644c0.427 0.233-0.427-0.233 0 0z" />
<glyph unicode="&#xea08;" d="M328.269 577.079c5.514 16.935 11.917 29.933 13.080 32.294 35.129 11.021 61.439 19.275 88.464 31.193 15.714-14.584 30.712-32.831 46.49-54.494-1.754-8.481-4.288-13.547-7.231-21.527-48.566-19.14-95.201-16.918-140.803 12.535z" />
<glyph unicode="&#xea09;" d="M573 635.984c4.373 17.676-10.469 47.799 29.593 36.662 15.835-7.876 28.17-15.152 41.462-28.78-7.748-21.089-16.454-35.824-25.16-50.56-15.052 13.114-30.103 26.227-45.896 42.678z" />
<glyph unicode="&#xea0a;" d="M618.392 591.972c9.209 16.070 17.915 30.805 27.029 48.871 14.412 2.712 28.416 2.093 46.591 0.888 4.233-7.916 4.295-15.246 0.994-26.827-8.031-13.538-12.699-22.824-17.366-32.11-16.582 1.526-33.164 3.052-53.94 4.798-4.195 0.22-3.811 3.046-3.307 4.38z" />
<glyph unicode="&#xea0b;" d="M480.723 335.207c-17.436-0.972-34.927 1.695-56.82 5.073 10.167 9.066 24.735 17.42 43.216 25.779 7.124-9.068 10.337-18.14 13.604-30.853z" />
<glyph unicode="&#xea0c;" d="M397.411 337.562c-9.813-15.060-21.647-27.763-36.499-41.746-13.825 33.103 8.682 39.961 36.499 41.746z" />
<glyph unicode="&#xea0d;" d="M609.739 673.279c-3.179 8.787-2.991 19.235 0.238 30.35 3.070-9.118 3.1-18.904-0.238-30.35z" />
<glyph unicode="&#xea0e;" d="M680.163 581.744c0.143 10.336 4.811 19.622 12.833 29.495 27.096-6.596 50.838-13.78 74.807-24.96-27.554-4.526-55.335-5.055-87.64-4.534z" />
<glyph unicode="&#xea0f;" d="M506.771 294.585c12.261-10.278 20.93-21.786 32.926-33.289-13.954-21.058-31.233-42.121-48.512-63.184-4.683 1.921-9.365 3.843-14.048 5.764-1.942 13.8-3.884 27.6-5.814 45.471 10.628 17.383 21.243 30.696 35.449 45.238z" />
<glyph unicode="&#xea10;" d="M448.762 266.551c-10.744-3.369-20.807-3.29-34.649-3.206 9.258 2.221 22.294 4.438 34.649 3.206z" />
<glyph unicode="&#xea11;" d="M580.616 294.656c0.316-2.599-2.408-5.067-7.85-8.276-0.209 2.308 2.3 5.358 7.85 8.276z" />
<glyph unicode="&#xea12;" d="M1034.24 581.12c0-221.867 0-438.613 0-655.36-341.333 0-682.666 0-1024 0 0 341.333 0 682.666 0 1023.999 341.333 0 682.666 0 1023.999 0 0.001-121.173 0.001-242.346 0.001-368.64zM779.813 828.194c-1.468 8.267-3.911 16.496-4.228 24.806-1.067 28.018-7.64 48.518-42.258 51.048-37.523 2.743-38.777-20.189-43.546-46.934-2.589-14.522-15.829-27.145-33.506-37.879-102.664 1.371-205.328 2.742-306.334 12.034-3.156 29.488 12.617 68.485-38.344 73.466-66.62 6.511-33.339-51.585-48.801-76.887-140.1-16.749-169.657-46.6-167.144-174.61 1.368-78.757 2.735-157.513 1.132-245.374 0.108-103.703 0.359-207.406 0.267-311.109-0.049-55.254 24.875-93.65 81.675-120.040 16.549-3.215 33.096-9.205 49.648-9.222 196.841-0.198 393.684 0.227 590.521 1.447 16.169 0.1 32.294 7.199 56.093 13.805 35.352 23.171 67.964 48.267 70.811 102.259-0.376 8.589-0.752 17.178 1.908 34.809-0.397 119.474-0.795 238.947 1.564 367.47-0.855 31.427-1.71 62.854-0.389 102.861-0.102 20.196-0.363 40.392-0.277 60.587 0.228 53.137-2.096 105.167-58.659 142.677-13.319 7.805-26.638 15.609-48.089 25.404-19.202 0.837-38.405 1.675-62.042 9.381z" />
<glyph unicode="&#xea13;" d="M946.513 478.236c0.397-119.474 0.795-238.947-2.893-364.244-3.023-15.486-1.962-25.15-0.9-34.814 0.23-48.164-32.382-73.26-71.15-93.771-29.997 6.182-56.576 9.703-83.871 16.506-10.449 14.251-20.184 25.22-26.684 36.1 18.003 0.268 32.772 0.626 49.645-1.431 14.489 5.859 26.876 14.132 41.963 25.735 4.601 141.135 6.502 278.94 12.184 416.681 10.782 7.267 17.782 14.598 24.783 21.929-9.875 6.12-19.749 12.24-32.203 18.554-4.295 0.365-6.011 0.536-7.64 4.262 0.074 10.662 0.061 17.77 0.469 27.302 1.123 5.658 1.226 8.91 3.941 15.595 5.326 30.93 7.439 58.447 13.429 85.961 50.136 2.712 47.538 28.874 36.737 62.996-7.189 22.709-7.914 47.464-11.533 71.303 53.719-30.999 56.043-83.028 55.815-136.166-0.087-20.195 0.174-40.391-4.289-65.787-40.503-16.532-36.174-47.094-31.096-72.17 2.677-13.218 21.669-23.133 33.295-34.539z" />
<glyph unicode="&#xea14;" d="M97.742 662.564c-4.603 118.685 24.954 148.536 165.054 165.285 15.463 25.302-17.818 83.398 48.801 76.887 50.961-4.981 35.188-43.977 38.818-80.842 5.87-11.485 11.266-15.594 17.179-23.544 10.183-10.971 19.744-24.114 29.531-24.285 82.643-1.444 165.327-0.518 247.509-3.448-6.937-13.716-13.384-24.287-24.57-35.739-92.31-0.881-179.882-0.881-270.676-0.881-0.589-41.71 4.452-78.758-48.297-77.143-57.283 1.753-22.302 50.741-43.484 75.101-30.214 6.853-59.975 6.462-80.672-32.225-6.918-37.633-10.327-73.732-16.307-106.983-7.13 38.936-6.876 79.493-62.887 67.816z" />
<glyph unicode="&#xea15;" d="M757.781 38.103c9.734-10.969 19.469-21.938 25.133-36.518-187.624-3.814-371.181-3.575-554.727-4.9-18.45-0.133-36.832-9.739-55.246-14.949-51.017 21.37-75.941 59.767-75.892 115.020 0.092 103.703-0.159 207.406 4.842 315.745 17.219 4.679 29.33 4.721 41.449 0.928 0.018-11.508 0.027-19.18 0.030-31.244 0.027-21.978 0.059-39.563 0.078-61.643 3.418-61.302 5.855-118.205 11.279-174.822 0.886-9.248 14.95-17.234 24.408-29.948 4.012-28.789-2.691-59.086 38.21-64.737 19.43-6.539 37.116-12.244 54.83-12.327 161.866-0.758 323.736-0.539 485.605-0.604z" />
<glyph unicode="&#xea16;" d="M624.802 737.759c6.447 10.571 12.895 21.143 21.138 37.752 4.548 13.918 7.301 21.797 12.353 30.926 3.941 4.184 5.582 7.119 7.224 10.054 8.436 13.48 21.675 26.103 24.264 40.625 4.769 26.745 6.023 49.677 43.546 46.934 34.618-2.53 41.191-23.031 42.258-51.048 0.316-8.31 2.759-16.54 4.298-30.46-0.485-7.188-1.514-8.746-1.442-10.251 0.055-1.153 1.609-3.28 2.31-3.206 23.092 2.448 46.162 5.109 69.235 7.739 13.319-7.805 26.638-15.609 41.379-26.669 5.041-27.095 5.766-51.85 12.955-74.559 10.802-34.122 13.399-60.284-37.812-58.619-5.095 14.314-2.486 25.374-5.992 33.929-6.051 14.767-13.343 36.563-24.72 39.953-20.216 6.025-49.849 20.9-63.34-14.38-26.744-6.316-51.538-14.509-78.17-19.011-0.811 59.463-47.214 27.574-69.483 40.29z" />
<glyph unicode="&#xea17;" d="M175.833-20.774c15.522 7.72 33.904 17.326 52.354 17.459 183.546 1.325 367.103 1.086 555.442 1.618 31.364-3.192 57.944-6.713 84.114-14.275-16.555-7.888-32.681-14.986-48.85-15.087-196.837-1.22-393.68-1.645-590.521-1.447-16.552 0.017-33.099 6.007-52.54 11.732z" />
<glyph unicode="&#xea18;" d="M143.333 417.264c-12.111-0.042-24.222-0.085-39.956-0.212-4.991 78.673-6.358 157.429-6.68 240.848 57.056 16.339 56.802-24.218 65.134-65.207 7.836-7.054 11.899-9.209 17.798-13.694 5.76-6.741 9.685-11.15 13.985-18.905 0.509-5.584 0.643-7.824 0.837-13.859 0.083-11.389 0.107-18.982-1.594-29.001-4.308-13.784-6.892-25.141-11.076-39.576-3.25-12.076-4.899-21.075-10.382-30.075-11.91-10.107-19.988-20.213-28.065-30.319z" />
<glyph unicode="&#xea19;" d="M947.891 482.761c-13.004 6.882-31.996 16.796-34.673 30.015-5.078 25.077-9.406 55.639 30.008 67.88 4.332-30.516 5.188-61.943 4.665-97.895z" />
<glyph unicode="&#xea1a;" d="M660.896 817.863c2.98-4.307 1.338-7.242-7.446-10.931-100.22-1.417-193.297-2.079-286.373-2.741-5.396 4.109-10.791 8.218-17.49 15.742 101.361 2.045 204.025 0.673 311.31-2.070z" />
<glyph unicode="&#xea1b;" d="M845.921 817.819c-19.007-3.625-42.077-6.286-65.169-8.734-0.7-0.074-2.255 2.053-2.31 3.206-0.072 1.505 0.957 3.062 3.659 6.817 21.349 1.382 40.552 0.544 63.82-1.288z" />
<glyph unicode="&#xea1c;" d="M944.259 82.092c-2.6 6.75-3.662 16.414-2.157 27.379 2.943-7.288 3.319-15.877 2.157-27.379z" />
<glyph unicode="&#xea1d;" d="M175.231 447.584c1.649 8.999 3.298 17.998 11.2 29.748 34.048 3.041 61.843 3.331 93.505 2.553 11.795-0.411 19.725 0.245 32.227 0.2 35.437-0.44 66.301-0.18 101.738-0.991 35.825-0.442 67.077 0.187 101.645 0.176 7.777-0.197 12.237 0.245 21.418-0.325 104.225 0.199 203.729 1.41 306.517 1.853 7.763-1.179 12.241-1.59 16.985-2.119 0.265-0.117 0.559 0.382 0.559 0.382-1.9-137.805-3.801-275.61-12.635-416.534-18.023-4.834-29.111-6.549-44.895-7.748-199.090 0.243-393.484-0.031-587.879-0.304-39.17 2.209-32.467 32.506-34.968 65.903-1.505 74.042-3.035 139.332-3.198 208.39 0.3 21.964-0.767 40.159-0.542 62.536 0.302 21.547-0.687 38.913-1.676 56.279zM322.725 314.265c7.307 19.915 17.363 39.483 19.957 59.995 0.635 5.020-22.724 17.167-35.843 18.554-10.703 1.131-28.949-6.246-32.439-14.611-5.104-12.234-4.87-31.933 2.098-42.521 7.245-11.009 25.204-14.968 46.228-21.416zM523.442 150.644c37.655 10.74 36.084 36.811 27.035 68.564-19.045 0-36.957 0-57.932 0 0.169-27.256-36.343-63.789 30.897-68.564zM499.886 314.081c28.599-0.475 62.077-6.903 58.172 39.269-3.733 44.137-37.418 31.497-71.674 35.945 2.176-27.013 3.973-49.311 13.502-75.215zM696.104 366.374c0-16.278 0-32.556 0-62.516 31.653 13.076 54.52 19.896 73.732 32.352 4.662 3.022-0.756 35.133-4.893 35.906-21.085 3.937-43.271 1.98-68.839-5.742zM715.126 147.691c17.971 1.071 35.943 2.141 56.161 3.346-2.419 23.502-4.353 42.295-6.303 61.24-24.512 0-44.583 0-69.277 0 3.592-21.699 7.010-42.347 19.42-64.586zM266.306 184.478c-7.065-36.041 14.254-39.326 41.317-35.61 42.606 5.85 29.384 35.324 28.205 72.321-26.95-10.738-48.052-19.146-69.522-36.71z" />
<glyph unicode="&#xea1e;" d="M193.238 563.44c-3.925 4.41-7.85 8.819-12.487 20.132-0.577 44.5-0.441 82.097-0.306 119.693 17.188 37.152 46.949 37.543 77.163 30.689 21.182-24.36-13.798-73.348 43.484-75.101 52.748-1.614 47.707 35.433 48.297 77.143 90.795 0 178.366 0 270.676 0.881 27.007-11.835 73.41 20.053 73.47-43.723 22.705-18.766 44.324-29.528 74.442-44.522 3.232 33.166 4.831 49.568 6.429 65.97 11.541 37.156 41.174 22.28 61.39 16.256 11.377-3.39 18.669-25.186 24.72-39.953 3.506-8.555 0.897-19.615 2.116-33.925-1.037-31.895-3.151-59.413-12.328-88.848-26.062-6.766-45.060-11.614-66.542-15.847-5.988 1.177-9.308 0.626-14.574 3.202-18.871 5.523-35.61 7.898-52.352 7.92-174.532 0.228-349.065 0.078-523.598 0.032z" />
<glyph unicode="&#xea1f;" d="M771.319 551.248c3.135 1.664 6.456 2.215 16.889-0.034 25.148-1.989 43.367-2.291 61.587-2.593 0.013-7.108 0.025-14.216-2.151-25.969-4.97-6.396-6.927-8.813-12.785-12.055-45.642-0.027-86.56 0.104-128.608 3.61-17.706 3.281-34.281 3.187-55.383 3.335-42.611-2.388-80.695-5.017-122.065-7.53-7.676 0.022-12.067-0.072-21.145-0.1-36 0.103-67.312 0.139-103.193 0.35-35.2 0.105-65.832 0.035-100.507-0.024-12.13 0.012-20.218 0.012-31.268 0.282-6.928 0.332-10.894 0.394-16.019 3.438-11.176 3.71-21.193 4.438-35.068 5.295-11.58 0.223-19.301 0.315-27.022 0.408-0.023 7.593-0.046 15.186 4.683 26.786 193.854 4.271 382.955 4.536 572.056 4.801z" />
<glyph unicode="&#xea20;" d="M217.346 51.035c192.664 3.715 387.058 3.989 585.753 1.205 4.686-6.453 5.071-9.847 5.457-13.242-14.769-0.358-29.539-0.716-47.542-0.984-165.103 0.156-326.973-0.064-488.839 0.694-17.713 0.083-35.4 5.788-54.83 12.327z" />
<glyph unicode="&#xea21;" d="M859.965 519.287c9.875-6.12 19.749-12.24 29.624-18.36-7-7.331-14-14.662-24.783-21.929-3.782 0.064-4.076-0.435-4.266 3.738-0.318 14.966-0.447 25.758-0.575 36.551z" />
<glyph unicode="&#xea22;" d="M850.214 551.044c-18.639-2.122-36.859-1.82-59.523-0.445 14.553 5.92 33.552 10.768 56.401 14.122 4.349-4.766 4.246-8.019 3.122-13.677z" />
<glyph unicode="&#xea23;" d="M810.659 36.583c-2.488 5.81-2.874 9.205-2.864 15.14 11.483 4.256 22.571 5.972 37.893 7.476-8.153-8.485-20.539-16.758-35.029-22.616z" />
<glyph unicode="&#xea24;" d="M857.386 519.48c2.708-10.986 2.836-21.778 2.889-36.626-4.554-3.645-9.032-3.234-16.748 1.583-3.473 11.709-3.709 19.013-3.945 26.316 1.134 3.084 3.092 5.502 7.975 8.344 3.818 0.92 5.534 0.748 9.829 0.383z" />
<glyph unicode="&#xea25;" d="M367.594 800.35c92.559 4.503 185.636 5.166 283.557 5.333 2.091-8.374-0.662-16.254-4.721-27.027-83.978-3.108-166.662-4.034-249.304-2.591-9.787 0.171-19.348 13.314-29.531 24.285z" />
</font>
</defs>
</svg>
