<svg width="22" height="22" viewBox="0 0 22 22" fill="none" xmlns="http://www.w3.org/2000/svg">
<g clip-path="url(#clip0_591_19047)">
<path fill-rule="evenodd" clip-rule="evenodd" d="M0 0H41.8004V1.69232H0V0ZM0 3.38465H41.8004V5.07697H0V3.38465ZM0 6.7693H41.8004V8.46162H0V6.7693ZM0 10.1539H41.8004V11.8463H0V10.1539ZM0 13.5386H41.8004V15.2309H0V13.5386ZM0 16.9232H41.8004V18.6156H0V16.9232ZM0 20.3079H41.8004V22.0002H0V20.3079Z" fill="#BD3D44"/>
<path fill-rule="evenodd" clip-rule="evenodd" d="M0 1.69238H41.8004V3.38471H0V1.69238ZM0 5.07703H41.8004V6.76935H0V5.07703ZM0 8.46168H41.8004V10.154H0V8.46168ZM0 11.8463H41.8004V13.5386H0V11.8463ZM0 15.231H41.8004V16.9233H0V15.231ZM0 18.6156H41.8004V20.3079H0V18.6156Z" fill="white"/>
<path fill-rule="evenodd" clip-rule="evenodd" d="M0 0H16.7202V11.8463H0V0Z" fill="#192F5D"/>
<path fill-rule="evenodd" clip-rule="evenodd" d="M1.38788 0.507812L1.55711 0.981663H2.03096L1.64173 1.26936L1.79404 1.72629L1.38788 1.43859L1.01557 1.72629L1.16788 1.26936L0.761719 0.981663H1.26942L1.38788 0.507812ZM4.18021 0.507812L4.33252 0.981663H4.8233L4.41714 1.26936L4.58637 1.72629L4.18021 1.43859L3.77406 1.72629L3.94329 1.26936L3.53713 0.981663H4.02791L4.18021 0.507812ZM6.97255 0.507812L7.12486 0.981663H7.61563L7.20948 1.26936L7.37871 1.72629L6.97255 1.43859L6.56639 1.72629L6.73562 1.26936L6.32947 0.981663H6.82024L6.97255 0.507812ZM9.74796 0.507812L9.9172 0.981663H10.391L10.0018 1.26936L10.1541 1.72629L9.74796 1.43859L9.35873 1.72629L9.51104 1.26936L9.10488 0.981663H9.61258L9.74796 0.507812ZM12.5403 0.507812L12.6926 0.981663H13.1834L12.7772 1.26936L12.9465 1.72629L12.5234 1.43859L12.1341 1.72629L12.2864 1.26936L11.8803 0.981663H12.3711L12.5403 0.507812ZM15.3326 0.507812L15.4849 0.981663H15.9757L15.5696 1.26936L15.7388 1.72629L15.3326 1.43859L14.9265 1.72629L15.0957 1.26936L14.6896 0.981663H15.1803L15.3326 0.507812ZM2.79251 1.69244L2.94482 2.16629H3.43559L3.02943 2.45398L3.19867 2.91091L2.79251 2.62322L2.38635 2.91091L2.55558 2.45398L2.14943 2.16629H2.6402L2.79251 1.69244ZM5.56792 1.69244L5.73715 2.16629H6.211L5.82177 2.45398L5.97408 2.91091L5.56792 2.62322L5.17869 2.91091L5.331 2.45398L4.92484 2.16629H5.43253L5.56792 1.69244ZM8.36026 1.69244L8.51257 2.16629H9.00334L8.59718 2.45398L8.76641 2.91091L8.36026 2.62322L7.9541 2.91091L8.12333 2.45398L7.71717 2.16629H8.20795L8.36026 1.69244ZM11.1526 1.69244L11.3049 2.16629H11.7957L11.3895 2.45398L11.5588 2.91091L11.1526 2.62322L10.7464 2.91091L10.9157 2.45398L10.5095 2.16629H11.0003L11.1526 1.69244ZM13.928 1.69244L14.0972 2.16629H14.5542L14.1649 2.45398L14.3172 2.91091L13.9111 2.62322L13.5218 2.91091L13.6742 2.45398L13.268 2.16629H13.7757L13.928 1.69244ZM1.4048 2.87707L1.54019 3.35092H2.04789L1.64173 3.63861L1.79404 4.09554L1.38788 3.80784L1.01557 4.09554L1.16788 3.63861L0.761719 3.35092H1.26942L1.4048 2.87707ZM4.18021 2.87707L4.33252 3.35092H4.8233L4.43406 3.63861L4.58637 4.09554L4.18021 3.80784L3.79098 4.09554L3.94329 3.63861L3.53713 3.35092H4.02791L4.18021 2.87707ZM6.97255 2.87707L7.12486 3.35092H7.61563L7.20948 3.63861L7.37871 4.09554L6.97255 3.80784L6.56639 4.09554L6.73562 3.63861L6.32947 3.35092H6.82024L6.97255 2.87707ZM9.74796 2.87707L9.9172 3.35092H10.391L10.0018 3.63861L10.1541 4.09554L9.74796 3.80784L9.35873 4.09554L9.51104 3.63861L9.10488 3.35092H9.61258L9.74796 2.87707ZM12.5403 2.87707L12.6926 3.35092H13.1834L12.7941 3.63861L12.9465 4.09554L12.5403 3.80784L12.1511 4.09554L12.3034 3.63861L11.8972 3.35092H12.388L12.5403 2.87707ZM15.3326 2.87707L15.4849 3.35092H15.9757L15.5696 3.63861L15.7388 4.09554L15.3326 3.80784L14.9265 4.09554L15.0957 3.63861L14.6896 3.35092H15.1803L15.3326 2.87707ZM2.79251 4.06169L2.94482 4.53554H3.43559L3.02943 4.82324L3.19867 5.28017L2.79251 4.99247L2.38635 5.28017L2.55558 4.82324L2.14943 4.53554H2.6402L2.79251 4.06169ZM5.56792 4.06169L5.73715 4.53554H6.211L5.82177 4.82324L5.97408 5.28017L5.56792 4.99247L5.17869 5.28017L5.331 4.82324L4.92484 4.53554H5.43253L5.56792 4.06169ZM8.36026 4.06169L8.51257 4.53554H9.00334L8.61411 4.82324L8.76641 5.28017L8.36026 4.99247L7.97102 5.28017L8.12333 4.82324L7.71717 4.53554H8.20795L8.36026 4.06169ZM11.1526 4.06169L11.3049 4.53554H11.7957L11.3895 4.82324L11.5588 5.28017L11.1526 4.99247L10.7464 5.28017L10.9157 4.82324L10.5095 4.53554H11.0003L11.1526 4.06169ZM13.928 4.06169L14.0972 4.53554H14.5542L14.1649 4.82324L14.3172 5.28017L13.9111 4.99247L13.5218 5.28017L13.6742 4.82324L13.268 4.53554H13.7757L13.928 4.06169ZM1.4048 5.24632L1.54019 5.72017H2.04789L1.64173 6.00786L1.79404 6.46479L1.38788 6.1771L1.01557 6.46479L1.16788 6.00786L0.761719 5.72017H1.26942L1.4048 5.24632ZM4.18021 5.24632L4.33252 5.72017H4.8233L4.43406 6.00786L4.58637 6.46479L4.18021 6.1771L3.79098 6.46479L3.94329 6.00786L3.53713 5.72017H4.02791L4.18021 5.24632ZM6.97255 5.24632L7.12486 5.72017H7.61563L7.20948 6.00786L7.37871 6.46479L6.97255 6.1771L6.56639 6.46479L6.73562 6.00786L6.32947 5.72017H6.82024L6.97255 5.24632ZM9.74796 5.24632L9.9172 5.72017H10.391L10.0018 6.00786L10.1541 6.46479L9.74796 6.1771L9.35873 6.46479L9.51104 6.00786L9.10488 5.72017H9.61258L9.74796 5.24632ZM12.5403 5.24632L12.6926 5.72017H13.1834L12.7941 6.00786L12.9465 6.46479L12.5403 6.1771L12.1511 6.46479L12.3034 6.00786L11.8972 5.72017H12.388L12.5403 5.24632ZM15.3326 5.24632L15.4849 5.72017H15.9757L15.5696 6.00786L15.7388 6.46479L15.3326 6.1771L14.9265 6.46479L15.0957 6.00786L14.6896 5.72017H15.1803L15.3326 5.24632ZM2.79251 6.43095L2.94482 6.9048H3.43559L3.02943 7.19249L3.19867 7.64942L2.79251 7.36172L2.38635 7.64942L2.55558 7.19249L2.14943 6.9048H2.6402L2.79251 6.43095ZM5.56792 6.43095L5.73715 6.9048H6.211L5.82177 7.19249L5.97408 7.64942L5.56792 7.36172L5.17869 7.64942L5.331 7.19249L4.92484 6.9048H5.43253L5.56792 6.43095ZM8.36026 6.43095L8.51257 6.9048H9.00334L8.61411 7.19249L8.76641 7.64942L8.36026 7.36172L7.97102 7.64942L8.12333 7.19249L7.71717 6.9048H8.20795L8.36026 6.43095ZM11.1526 6.43095L11.3049 6.9048H11.7957L11.3895 7.19249L11.5588 7.64942L11.1526 7.36172L10.7464 7.64942L10.9157 7.19249L10.5095 6.9048H11.0003L11.1526 6.43095ZM13.928 6.43095L14.0972 6.9048H14.5542L14.1649 7.19249L14.3172 7.64942L13.9111 7.36172L13.5218 7.64942L13.6742 7.19249L13.268 6.9048H13.7757L13.928 6.43095ZM1.4048 7.61557L1.54019 8.08942H2.04789L1.64173 8.37712L1.79404 8.83405L1.38788 8.54635L1.01557 8.83405L1.16788 8.37712L0.761719 8.08942H1.26942L1.4048 7.61557ZM4.18021 7.61557L4.33252 8.08942H4.8233L4.43406 8.37712L4.58637 8.83405L4.18021 8.54635L3.79098 8.83405L3.94329 8.37712L3.53713 8.08942H4.02791L4.18021 7.61557ZM6.97255 7.61557L7.12486 8.08942H7.61563L7.20948 8.37712L7.37871 8.83405L6.97255 8.54635L6.56639 8.83405L6.73562 8.37712L6.32947 8.08942H6.82024L6.97255 7.61557ZM9.74796 7.61557L9.9172 8.08942H10.391L10.0018 8.37712L10.1541 8.83405L9.74796 8.54635L9.35873 8.83405L9.51104 8.37712L9.10488 8.08942H9.61258L9.74796 7.61557ZM12.5403 7.61557L12.6926 8.08942H13.1834L12.7941 8.37712L12.9465 8.83405L12.5403 8.54635L12.1511 8.83405L12.3034 8.37712L11.8972 8.08942H12.388L12.5403 7.61557ZM15.3326 7.61557L15.4849 8.08942H15.9757L15.5696 8.37712L15.7388 8.83405L15.3326 8.54635L14.9265 8.83405L15.0957 8.37712L14.6896 8.08942H15.1803L15.3326 7.61557ZM2.79251 8.8002L2.94482 9.27405H3.43559L3.02943 9.56174L3.19867 10.0187L2.79251 9.73098L2.38635 10.0187L2.55558 9.56174L2.14943 9.27405H2.6402L2.79251 8.8002ZM5.56792 8.8002L5.73715 9.27405H6.211L5.82177 9.56174L5.97408 10.0187L5.56792 9.73098L5.17869 10.0187L5.331 9.56174L4.92484 9.27405H5.43253L5.56792 8.8002ZM8.36026 8.8002L8.51257 9.27405H9.00334L8.61411 9.56174L8.76641 10.0187L8.36026 9.73098L7.97102 10.0187L8.12333 9.56174L7.71717 9.27405H8.20795L8.36026 8.8002ZM11.1526 8.8002L11.3049 9.27405H11.7957L11.3895 9.56174L11.5588 10.0187L11.1526 9.73098L10.7464 10.0187L10.9157 9.56174L10.5095 9.27405H11.0003L11.1526 8.8002ZM13.928 8.8002L14.0972 9.27405H14.5542L14.1649 9.56174L14.3172 10.0187L13.9111 9.73098L13.5218 10.0187L13.6742 9.56174L13.268 9.27405H13.7757L13.928 8.8002ZM1.4048 9.98483L1.54019 10.4587H2.04789L1.64173 10.7464L1.79404 11.2033L1.38788 10.9156L1.01557 11.2033L1.16788 10.7464L0.761719 10.4587H1.26942L1.4048 9.98483ZM4.18021 9.98483L4.33252 10.4587H4.8233L4.43406 10.7464L4.58637 11.2033L4.18021 10.9156L3.79098 11.2033L3.94329 10.7464L3.53713 10.4587H4.02791L4.18021 9.98483ZM6.97255 9.98483L7.12486 10.4587H7.61563L7.20948 10.7464L7.37871 11.2033L6.97255 10.9156L6.56639 11.2033L6.73562 10.7464L6.32947 10.4587H6.82024L6.97255 9.98483ZM9.74796 9.98483L9.9172 10.4587H10.391L10.0018 10.7464L10.1541 11.2033L9.74796 10.9156L9.35873 11.2033L9.51104 10.7464L9.10488 10.4587H9.61258L9.74796 9.98483ZM12.5403 9.98483L12.6926 10.4587H13.1834L12.7941 10.7464L12.9465 11.2033L12.5403 10.9156L12.1511 11.2033L12.3034 10.7464L11.8972 10.4587H12.388L12.5403 9.98483ZM15.3326 9.98483L15.4849 10.4587H15.9757L15.5696 10.7464L15.7388 11.2033L15.3326 10.9156L14.9265 11.2033L15.0957 10.7464L14.6896 10.4587H15.1803L15.3326 9.98483Z" fill="white"/>
</g>
<defs>
<clipPath id="clip0_591_19047">
<rect width="22" height="22" rx="11" fill="white"/>
</clipPath>
</defs>
</svg>
